{"glyphs":{"0":{"ha":1042,"x_min":0,"x_max":0,"o":"m 960 972 l 82 972 l 82 0 l 960 0 z m 793 157 l 249 157 l 249 815 l 793 815 z "},"1":{"ha":1088,"x_min":0,"x_max":0,"o":"m 710 157 l 710 972 l 543 972 l 46 450 l 161 333 l 543 735 l 543 157 l 167 157 l 167 0 l 1088 0 l 1088 157 z "},"2":{"ha":986,"x_min":0,"x_max":0,"o":"m 904 972 l 82 972 l 82 815 l 738 815 l 738 583 l 82 583 l 82 0 l 904 0 l 904 157 l 249 157 l 249 426 l 904 426 z "},"3":{"ha":990,"x_min":0,"x_max":0,"o":"m 908 972 l 82 972 l 82 815 l 742 815 l 742 578 l 90 578 l 90 421 l 742 421 l 742 157 l 82 157 l 82 0 l 908 0 z "},"4":{"ha":1042,"x_min":0,"x_max":0,"o":"m 793 972 l 793 550 l 249 550 l 249 972 l 82 972 l 82 393 l 793 393 l 793 0 l 960 0 l 960 972 z "},"5":{"ha":986,"x_min":0,"x_max":0,"o":"m 249 972 l 82 972 l 82 426 l 738 426 l 738 157 l 82 157 l 82 0 l 904 0 l 904 583 l 249 583 z m 493 972 l 493 815 l 904 815 l 904 972 z "},"6":{"ha":1042,"x_min":0,"x_max":0,"o":"m 960 815 l 960 972 l 82 972 l 82 0 l 960 0 l 960 578 l 249 578 l 249 815 z m 793 421 l 793 157 l 249 157 l 249 421 z "},"7":{"ha":1042,"x_min":0,"x_max":0,"o":"m 960 972 l 92 972 l 92 815 l 793 815 l 793 0 l 960 0 z "},"8":{"ha":1042,"x_min":0,"x_max":0,"o":"m 960 972 l 82 972 l 82 0 l 960 0 z m 793 578 l 249 578 l 249 815 l 793 815 z m 793 157 l 249 157 l 249 421 l 793 421 z "},"9":{"ha":1042,"x_min":0,"x_max":0,"o":"m 960 972 l 82 972 l 82 421 l 793 421 l 793 157 l 82 157 l 82 0 l 960 0 z m 793 578 l 249 578 l 249 815 l 793 815 z "}," ":{"ha":347,"x_min":0,"x_max":0,"o":""},"A":{"ha":1042,"x_min":0,"x_max":0,"o":"m 960 972 l 82 972 l 82 0 l 249 0 l 249 393 l 793 393 l 793 0 l 960 0 z m 793 550 l 249 550 l 249 815 l 793 815 z "},"Á":{"ha":1042,"x_min":0,"x_max":0,"o":"m 706 1211 l 603 1317 l 394 1108 l 500 1006 z m 960 972 l 82 972 l 82 0 l 249 0 l 249 393 l 793 393 l 793 0 l 960 0 z m 793 550 l 249 550 l 249 815 l 793 815 z "},"Ă":{"ha":1042,"x_min":0,"x_max":0,"o":"m 521 1029 b 754 1258 682 1029 760 1142 l 625 1258 b 521 1175 624 1228 594 1175 b 417 1258 447 1175 418 1228 l 288 1258 b 521 1029 282 1142 360 1029 z m 960 972 l 82 972 l 82 0 l 249 0 l 249 393 l 793 393 l 793 0 l 960 0 z m 793 550 l 249 550 l 249 815 l 793 815 z "},"Â":{"ha":1042,"x_min":0,"x_max":0,"o":"m 521 1108 l 624 1006 l 729 1108 l 521 1317 l 313 1108 l 418 1006 z m 960 972 l 82 972 l 82 0 l 249 0 l 249 393 l 793 393 l 793 0 l 960 0 z m 793 550 l 249 550 l 249 815 l 793 815 z "},"Ä":{"ha":1042,"x_min":0,"x_max":0,"o":"m 463 1215 l 301 1215 l 301 1054 l 463 1054 z m 740 1215 l 579 1215 l 579 1054 l 740 1054 z m 960 972 l 82 972 l 82 0 l 249 0 l 249 393 l 793 393 l 793 0 l 960 0 z m 793 550 l 249 550 l 249 815 l 793 815 z "},"À":{"ha":1042,"x_min":0,"x_max":0,"o":"m 647 1108 l 439 1317 l 336 1211 l 543 1006 z m 960 972 l 82 972 l 82 0 l 249 0 l 249 393 l 793 393 l 793 0 l 960 0 z m 793 550 l 249 550 l 249 815 l 793 815 z "},"Ā":{"ha":1042,"x_min":0,"x_max":0,"o":"m 740 1221 l 301 1221 l 301 1054 l 740 1054 z m 960 972 l 82 972 l 82 0 l 249 0 l 249 393 l 793 393 l 793 0 l 960 0 z m 793 550 l 249 550 l 249 815 l 793 815 z "},"Ą":{"ha":1042,"x_min":0,"x_max":0,"o":"m 918 -81 b 960 0 918 -53 931 -25 l 960 972 l 82 972 l 82 0 l 249 0 l 249 393 l 793 393 l 793 0 l 833 0 b 760 -135 800 -32 760 -64 b 964 -278 760 -207 801 -278 l 964 -121 b 918 -81 936 -121 918 -101 z m 249 550 l 249 815 l 793 815 l 793 550 z "},"Å":{"ha":1042,"x_min":0,"x_max":0,"o":"m 521 1008 b 660 1147 597 1008 660 1071 b 521 1286 660 1222 597 1286 b 382 1147 444 1286 382 1222 b 521 1008 382 1071 444 1008 z m 521 1163 b 538 1147 529 1163 538 1156 b 521 1131 538 1139 529 1131 b 506 1147 513 1131 506 1139 b 521 1163 506 1156 513 1163 z m 960 972 l 82 972 l 82 0 l 249 0 l 249 393 l 793 393 l 793 0 l 960 0 z m 793 550 l 249 550 l 249 815 l 793 815 z "},"Ã":{"ha":1042,"x_min":0,"x_max":0,"o":"m 457 1082 b 619 1038 493 1082 550 1038 b 779 1219 703 1038 779 1113 l 635 1219 b 614 1194 631 1194 625 1194 b 460 1239 578 1194 535 1239 b 293 1057 368 1239 293 1165 l 435 1057 b 457 1082 439 1083 447 1082 z m 960 972 l 82 972 l 82 0 l 249 0 l 249 393 l 793 393 l 793 0 l 960 0 z m 793 550 l 249 550 l 249 815 l 793 815 z "},"Æ":{"ha":1657,"x_min":0,"x_max":0,"o":"m 1619 815 l 1619 972 l 82 972 l 82 0 l 249 0 l 249 407 l 793 407 l 793 0 l 1619 0 l 1619 157 l 960 157 l 960 407 l 1611 407 l 1611 564 l 960 564 l 960 815 z m 793 564 l 249 564 l 249 815 l 793 815 z "},"B":{"ha":1042,"x_min":0,"x_max":0,"o":"m 825 578 l 825 972 l 82 972 l 82 0 l 960 0 l 960 578 z m 249 815 l 658 815 l 658 578 l 249 578 z m 249 157 l 249 421 l 793 421 l 793 157 z "},"C":{"ha":917,"x_min":0,"x_max":0,"o":"m 881 815 l 881 972 l 82 972 l 82 0 l 881 0 l 881 157 l 249 157 l 249 815 z "},"Ć":{"ha":917,"x_min":0,"x_max":0,"o":"m 699 1211 l 596 1317 l 388 1108 l 493 1006 z m 881 815 l 881 972 l 82 972 l 82 0 l 881 0 l 881 157 l 249 157 l 249 815 z "},"Č":{"ha":917,"x_min":0,"x_max":0,"o":"m 722 1208 l 617 1313 l 514 1210 l 411 1313 l 306 1208 l 514 1000 z m 881 815 l 881 972 l 82 972 l 82 0 l 881 0 l 881 157 l 249 157 l 249 815 z "},"Ç":{"ha":917,"x_min":0,"x_max":0,"o":"m 881 815 l 881 972 l 82 972 l 82 0 l 436 0 l 415 -124 b 471 -153 465 -131 471 -142 b 386 -168 471 -162 453 -168 l 386 -278 b 629 -153 568 -278 629 -224 b 547 -57 629 -115 604 -79 l 557 0 l 881 0 l 881 157 l 249 157 l 249 815 z "},"Ċ":{"ha":917,"x_min":0,"x_max":0,"o":"m 594 1215 l 433 1215 l 433 1054 l 594 1054 z m 881 815 l 881 972 l 82 972 l 82 0 l 881 0 l 881 157 l 249 157 l 249 815 z "},"D":{"ha":1043,"x_min":0,"x_max":0,"o":"m 985 972 l 82 972 l 82 0 l 453 0 l 985 511 z m 818 578 l 379 157 l 249 157 l 249 815 l 818 815 z "},"Ð":{"ha":1043,"x_min":0,"x_max":0,"o":"m 985 972 l 82 972 l 82 578 l -57 578 l -57 421 l 82 421 l 82 0 l 453 0 l 985 511 z m 818 578 l 379 157 l 249 157 l 249 421 l 521 421 l 521 578 l 249 578 l 249 815 l 818 815 z "},"Ď":{"ha":1043,"x_min":0,"x_max":0,"o":"m 742 1208 l 636 1313 l 533 1210 l 431 1313 l 325 1208 l 533 1000 z m 985 972 l 82 972 l 82 0 l 453 0 l 985 511 z m 818 578 l 379 157 l 249 157 l 249 815 l 818 815 z "},"Đ":{"ha":1043,"x_min":0,"x_max":0,"o":"m 985 972 l 82 972 l 82 578 l -57 578 l -57 421 l 82 421 l 82 0 l 453 0 l 985 511 z m 818 578 l 379 157 l 249 157 l 249 421 l 521 421 l 521 578 l 249 578 l 249 815 l 818 815 z "},"E":{"ha":944,"x_min":0,"x_max":0,"o":"m 908 815 l 908 972 l 82 972 l 82 0 l 908 0 l 908 157 l 249 157 l 249 421 l 900 421 l 900 578 l 249 578 l 249 815 z "},"É":{"ha":944,"x_min":0,"x_max":0,"o":"m 707 1211 l 604 1317 l 396 1108 l 501 1006 z m 908 815 l 908 972 l 82 972 l 82 0 l 908 0 l 908 157 l 249 157 l 249 421 l 900 421 l 900 578 l 249 578 l 249 815 z "},"Ě":{"ha":944,"x_min":0,"x_max":0,"o":"m 731 1208 l 625 1313 l 522 1210 l 419 1313 l 314 1208 l 522 1000 z m 908 815 l 908 972 l 82 972 l 82 0 l 908 0 l 908 157 l 249 157 l 249 421 l 900 421 l 900 578 l 249 578 l 249 815 z "},"Ê":{"ha":944,"x_min":0,"x_max":0,"o":"m 522 1108 l 625 1006 l 731 1108 l 522 1317 l 314 1108 l 419 1006 z m 908 815 l 908 972 l 82 972 l 82 0 l 908 0 l 908 157 l 249 157 l 249 421 l 900 421 l 900 578 l 249 578 l 249 815 z "},"Ë":{"ha":944,"x_min":0,"x_max":0,"o":"m 464 1215 l 303 1215 l 303 1054 l 464 1054 z m 742 1215 l 581 1215 l 581 1054 l 742 1054 z m 908 815 l 908 972 l 82 972 l 82 0 l 908 0 l 908 157 l 249 157 l 249 421 l 900 421 l 900 578 l 249 578 l 249 815 z "},"Ė":{"ha":944,"x_min":0,"x_max":0,"o":"m 603 1215 l 442 1215 l 442 1054 l 603 1054 z m 908 815 l 908 972 l 82 972 l 82 0 l 908 0 l 908 157 l 249 157 l 249 421 l 900 421 l 900 578 l 249 578 l 249 815 z "},"È":{"ha":944,"x_min":0,"x_max":0,"o":"m 649 1108 l 440 1317 l 338 1211 l 544 1006 z m 908 815 l 908 972 l 82 972 l 82 0 l 908 0 l 908 157 l 249 157 l 249 421 l 900 421 l 900 578 l 249 578 l 249 815 z "},"Ē":{"ha":944,"x_min":0,"x_max":0,"o":"m 742 1221 l 303 1221 l 303 1054 l 742 1054 z m 908 815 l 908 972 l 82 972 l 82 0 l 908 0 l 908 157 l 249 157 l 249 421 l 900 421 l 900 578 l 249 578 l 249 815 z "},"Ę":{"ha":944,"x_min":0,"x_max":0,"o":"m 867 -81 b 908 0 867 -53 879 -25 l 908 157 l 249 157 l 249 421 l 900 421 l 900 578 l 249 578 l 249 815 l 908 815 l 908 972 l 82 972 l 82 0 l 782 0 b 708 -135 749 -32 708 -64 b 913 -278 708 -207 750 -278 l 913 -121 b 867 -81 885 -121 867 -101 z "},"F":{"ha":946,"x_min":0,"x_max":0,"o":"m 908 815 l 908 972 l 82 972 l 82 0 l 249 0 l 249 396 l 900 396 l 900 553 l 249 553 l 249 815 z "},"G":{"ha":1042,"x_min":0,"x_max":0,"o":"m 249 815 l 960 815 l 960 972 l 82 972 l 82 0 l 960 0 l 960 521 l 793 521 l 793 157 l 249 157 z "},"Ğ":{"ha":1042,"x_min":0,"x_max":0,"o":"m 521 1029 b 754 1258 682 1029 760 1142 l 625 1258 b 521 1175 624 1228 594 1175 b 417 1258 447 1175 418 1228 l 288 1258 b 521 1029 282 1142 360 1029 z m 249 815 l 960 815 l 960 972 l 82 972 l 82 0 l 960 0 l 960 521 l 793 521 l 793 157 l 249 157 z "},"Ģ":{"ha":1042,"x_min":0,"x_max":0,"o":"m 249 815 l 960 815 l 960 972 l 82 972 l 82 0 l 960 0 l 960 521 l 793 521 l 793 157 l 249 157 z m 357 -344 l 472 -461 l 719 -207 l 604 -90 z "},"Ġ":{"ha":1042,"x_min":0,"x_max":0,"o":"m 601 1215 l 440 1215 l 440 1054 l 601 1054 z m 249 815 l 960 815 l 960 972 l 82 972 l 82 0 l 960 0 l 960 521 l 793 521 l 793 157 l 249 157 z "},"H":{"ha":1042,"x_min":0,"x_max":0,"o":"m 793 972 l 793 578 l 249 578 l 249 972 l 82 972 l 82 0 l 249 0 l 249 421 l 793 421 l 793 0 l 960 0 l 960 972 z "},"Ħ":{"ha":1042,"x_min":0,"x_max":0,"o":"m 1042 894 l 960 894 l 960 972 l 793 972 l 793 894 l 249 894 l 249 972 l 82 972 l 82 894 l 0 894 l 0 738 l 82 738 l 82 0 l 249 0 l 249 421 l 793 421 l 793 0 l 960 0 l 960 738 l 1042 738 z m 793 578 l 249 578 l 249 738 l 793 738 z "},"I":{"ha":319,"x_min":0,"x_max":0,"o":"m 76 972 l 76 0 l 243 0 l 243 972 z "},"Í":{"ha":319,"x_min":0,"x_max":0,"o":"m 242 1317 l 33 1108 l 139 1006 l 344 1211 z m 76 972 l 76 0 l 243 0 l 243 972 z "},"Î":{"ha":319,"x_min":0,"x_max":0,"o":"m 368 1108 l 160 1317 l -49 1108 l 57 1006 l 160 1108 l 263 1006 z m 76 972 l 76 0 l 243 0 l 243 972 z "},"Ï":{"ha":319,"x_min":0,"x_max":0,"o":"m -60 1215 l -60 1054 l 101 1054 l 101 1215 z m 218 1215 l 218 1054 l 379 1054 l 379 1215 z m 76 972 l 76 0 l 243 0 l 243 972 z "},"İ":{"ha":319,"x_min":0,"x_max":0,"o":"m 79 1215 l 79 1054 l 240 1054 l 240 1215 z m 76 972 l 76 0 l 243 0 l 243 972 z "},"Ì":{"ha":319,"x_min":0,"x_max":0,"o":"m 78 1317 l -25 1211 l 182 1006 l 286 1108 z m 76 972 l 76 0 l 243 0 l 243 972 z "},"Ī":{"ha":319,"x_min":0,"x_max":0,"o":"m -60 1221 l -60 1054 l 379 1054 l 379 1221 z m 76 972 l 76 0 l 243 0 l 243 972 z "},"Į":{"ha":319,"x_min":0,"x_max":0,"o":"m 201 -81 b 243 0 201 -53 214 -25 l 243 972 l 76 972 l 76 0 l 117 0 b 43 -135 83 -32 43 -64 b 247 -278 43 -207 85 -278 l 247 -121 b 201 -81 219 -121 201 -101 z "},"J":{"ha":1042,"x_min":0,"x_max":0,"o":"m 960 972 l 92 972 l 92 815 l 793 815 l 793 0 l 960 0 z m 74 442 l 521 -17 l 635 100 l 188 558 z "},"K":{"ha":994,"x_min":0,"x_max":0,"o":"m 997 872 l 882 989 l 508 604 l 393 722 l 278 606 l 394 486 l 278 367 l 393 250 l 508 368 l 882 -17 l 997 100 l 622 486 z m 82 0 l 249 0 l 249 972 l 82 972 z "},"Ķ":{"ha":994,"x_min":0,"x_max":0,"o":"m 997 872 l 882 989 l 508 604 l 393 722 l 278 606 l 394 486 l 278 367 l 393 250 l 508 368 l 882 -17 l 997 100 l 622 486 z m 82 0 l 249 0 l 249 972 l 82 972 z m 299 -344 l 414 -461 l 661 -207 l 546 -90 z "},"L":{"ha":908,"x_min":0,"x_max":0,"o":"m 249 156 l 249 972 l 82 972 l 82 -1 l 935 -1 l 935 156 z "},"Ĺ":{"ha":908,"x_min":0,"x_max":0,"o":"m 360 1211 l 257 1317 l 49 1108 l 154 1006 z m 249 156 l 249 972 l 82 972 l 82 -1 l 935 -1 l 935 156 z "},"Ľ":{"ha":908,"x_min":0,"x_max":0,"o":"m 249 156 l 249 972 l 82 972 l 82 -1 l 935 -1 l 935 156 z m 750 972 l 583 972 l 583 519 l 750 519 z "},"Ļ":{"ha":908,"x_min":0,"x_max":0,"o":"m 249 156 l 249 972 l 82 972 l 82 -1 l 935 -1 l 935 156 z m 288 -344 l 403 -461 l 650 -207 l 535 -90 z "},"Ł":{"ha":1004,"x_min":0,"x_max":0,"o":"m 249 972 l 82 972 l 82 -1 l 935 -1 l 935 156 l 249 156 z m 935 750 l 819 867 l 372 407 l 486 290 z "},"M":{"ha":1415,"x_min":0,"x_max":0,"o":"m 1167 972 l 708 486 l 249 972 l 82 972 l 82 0 l 249 0 l 249 732 l 597 365 l 344 100 l 458 -17 l 708 246 l 957 -17 l 1071 100 l 818 365 l 1167 732 l 1167 0 l 1333 0 l 1333 972 z "},"N":{"ha":1153,"x_min":0,"x_max":0,"o":"m 82 972 l 82 0 l 249 0 l 249 733 l 957 -17 l 1071 100 l 249 972 z m 911 972 l 911 556 l 1078 556 l 1078 972 z "},"Ń":{"ha":1153,"x_min":0,"x_max":0,"o":"m 790 1211 l 688 1317 l 479 1108 l 585 1006 z m 82 972 l 82 0 l 249 0 l 249 733 l 957 -17 l 1071 100 l 249 972 z m 911 972 l 911 556 l 1078 556 l 1078 972 z "},"Ň":{"ha":1153,"x_min":0,"x_max":0,"o":"m 814 1208 l 708 1313 l 606 1210 l 503 1313 l 397 1208 l 606 1000 z m 82 972 l 82 0 l 249 0 l 249 733 l 957 -17 l 1071 100 l 249 972 z m 911 972 l 911 556 l 1078 556 l 1078 972 z "},"Ņ":{"ha":1153,"x_min":0,"x_max":0,"o":"m 82 972 l 82 0 l 249 0 l 249 733 l 957 -17 l 1071 100 l 249 972 z m 911 972 l 911 556 l 1078 556 l 1078 972 z m 440 -344 l 556 -461 l 803 -207 l 688 -90 z "},"Ŋ":{"ha":1160,"x_min":0,"x_max":0,"o":"m 911 972 l 911 272 l 249 972 l 82 972 l 82 0 l 249 0 l 249 733 l 911 32 l 911 -278 l 1078 -278 l 1078 972 z "},"Ñ":{"ha":1153,"x_min":0,"x_max":0,"o":"m 540 1082 b 703 1038 576 1082 633 1038 b 863 1219 786 1038 863 1113 l 718 1219 b 697 1194 714 1194 708 1194 b 543 1239 661 1194 618 1239 b 376 1057 451 1239 376 1165 l 518 1057 b 540 1082 522 1083 531 1082 z m 82 972 l 82 0 l 249 0 l 249 733 l 957 -17 l 1071 100 l 249 972 z m 911 972 l 911 556 l 1078 556 l 1078 972 z "},"O":{"ha":1042,"x_min":0,"x_max":0,"o":"m 960 972 l 82 972 l 82 0 l 960 0 z m 793 157 l 249 157 l 249 815 l 793 815 z "},"Ó":{"ha":1042,"x_min":0,"x_max":0,"o":"m 706 1211 l 603 1317 l 394 1108 l 500 1006 z m 960 972 l 82 972 l 82 0 l 960 0 z m 793 157 l 249 157 l 249 815 l 793 815 z "},"Ô":{"ha":1042,"x_min":0,"x_max":0,"o":"m 521 1108 l 624 1006 l 729 1108 l 521 1317 l 313 1108 l 418 1006 z m 960 972 l 82 972 l 82 0 l 960 0 z m 793 157 l 249 157 l 249 815 l 793 815 z "},"Ö":{"ha":1042,"x_min":0,"x_max":0,"o":"m 463 1215 l 301 1215 l 301 1054 l 463 1054 z m 740 1215 l 579 1215 l 579 1054 l 740 1054 z m 960 972 l 82 972 l 82 0 l 960 0 z m 793 157 l 249 157 l 249 815 l 793 815 z "},"Ò":{"ha":1042,"x_min":0,"x_max":0,"o":"m 647 1108 l 439 1317 l 336 1211 l 543 1006 z m 960 972 l 82 972 l 82 0 l 960 0 z m 793 157 l 249 157 l 249 815 l 793 815 z "},"Ő":{"ha":1042,"x_min":0,"x_max":0,"o":"m 565 1211 l 463 1317 l 254 1108 l 360 1006 z m 654 1006 l 861 1211 l 757 1317 l 550 1108 z m 960 972 l 82 972 l 82 0 l 960 0 z m 793 157 l 249 157 l 249 815 l 793 815 z "},"Ō":{"ha":1042,"x_min":0,"x_max":0,"o":"m 740 1221 l 301 1221 l 301 1054 l 740 1054 z m 960 972 l 82 972 l 82 0 l 960 0 z m 793 157 l 249 157 l 249 815 l 793 815 z "},"Ø":{"ha":1042,"x_min":0,"x_max":0,"o":"m 960 972 l 82 972 l 82 0 l 208 0 l 210 -1 l 211 0 l 960 0 z m 688 815 l 249 296 l 249 815 z m 344 157 l 793 686 l 793 157 z "},"Õ":{"ha":1042,"x_min":0,"x_max":0,"o":"m 457 1082 b 619 1038 493 1082 550 1038 b 779 1219 703 1038 779 1113 l 635 1219 b 614 1194 631 1194 625 1194 b 460 1239 578 1194 535 1239 b 293 1057 368 1239 293 1165 l 435 1057 b 457 1082 439 1083 447 1082 z m 960 972 l 82 972 l 82 0 l 960 0 z m 793 157 l 249 157 l 249 815 l 793 815 z "},"Œ":{"ha":1657,"x_min":0,"x_max":0,"o":"m 1619 815 l 1619 972 l 82 972 l 82 0 l 1619 0 l 1619 157 l 960 157 l 960 421 l 1611 421 l 1611 578 l 960 578 l 960 815 z m 793 815 l 793 157 l 249 157 l 249 815 z "},"P":{"ha":951,"x_min":0,"x_max":0,"o":"m 950 972 l 82 972 l 82 0 l 249 0 l 249 417 l 950 417 z m 783 574 l 249 574 l 249 815 l 783 815 z "},"Þ":{"ha":1032,"x_min":0,"x_max":0,"o":"m 950 783 l 249 783 l 249 972 l 82 972 l 82 0 l 249 0 l 249 228 l 950 228 z m 783 385 l 249 385 l 249 626 l 783 626 z "},"Q":{"ha":1042,"x_min":0,"x_max":0,"o":"m 960 972 l 82 972 l 82 0 l 508 0 l 724 -224 l 839 -107 l 735 0 l 960 0 z m 793 157 l 601 157 l 410 353 l 296 236 l 375 157 l 249 157 l 249 815 l 793 815 z "},"R":{"ha":1057,"x_min":0,"x_max":0,"o":"m 783 815 l 783 417 l 950 417 l 950 972 l 82 972 l 82 0 l 249 0 l 249 815 z m 544 558 l 429 442 l 876 -17 l 992 100 z "},"Ŕ":{"ha":1057,"x_min":0,"x_max":0,"o":"m 731 1211 l 628 1317 l 419 1108 l 525 1006 z m 783 815 l 783 417 l 950 417 l 950 972 l 82 972 l 82 0 l 249 0 l 249 815 z m 544 558 l 429 442 l 876 -17 l 992 100 z "},"Ř":{"ha":1057,"x_min":0,"x_max":0,"o":"m 754 1208 l 649 1313 l 546 1210 l 443 1313 l 338 1208 l 546 1000 z m 783 815 l 783 417 l 950 417 l 950 972 l 82 972 l 82 0 l 249 0 l 249 815 z m 544 558 l 429 442 l 876 -17 l 992 100 z "},"Ŗ":{"ha":1057,"x_min":0,"x_max":0,"o":"m 783 815 l 783 417 l 950 417 l 950 972 l 82 972 l 82 0 l 249 0 l 249 815 z m 544 558 l 429 442 l 876 -17 l 992 100 z m 374 -344 l 489 -461 l 736 -207 l 621 -90 z "},"S":{"ha":986,"x_min":0,"x_max":0,"o":"m 904 815 l 904 972 l 82 972 l 82 426 l 738 426 l 738 157 l 82 157 l 82 0 l 904 0 l 904 583 l 249 583 l 249 815 z "},"Ś":{"ha":986,"x_min":0,"x_max":0,"o":"m 678 1211 l 575 1317 l 367 1108 l 472 1006 z m 904 815 l 904 972 l 82 972 l 82 426 l 738 426 l 738 157 l 82 157 l 82 0 l 904 0 l 904 583 l 249 583 l 249 815 z "},"Š":{"ha":986,"x_min":0,"x_max":0,"o":"m 701 1208 l 596 1313 l 493 1210 l 390 1313 l 285 1208 l 493 1000 z m 904 815 l 904 972 l 82 972 l 82 426 l 738 426 l 738 157 l 82 157 l 82 0 l 904 0 l 904 583 l 249 583 l 249 815 z "},"Ş":{"ha":986,"x_min":0,"x_max":0,"o":"m 904 815 l 904 972 l 82 972 l 82 426 l 738 426 l 738 157 l 82 157 l 82 0 l 415 0 l 394 -124 b 450 -153 444 -131 450 -142 b 365 -168 450 -162 432 -168 l 365 -278 b 608 -153 547 -278 608 -224 b 526 -57 608 -115 583 -79 l 536 0 l 904 0 l 904 583 l 249 583 l 249 815 z "},"Ș":{"ha":986,"x_min":0,"x_max":0,"o":"m 904 815 l 904 972 l 82 972 l 82 426 l 738 426 l 738 157 l 82 157 l 82 0 l 904 0 l 904 583 l 249 583 l 249 815 z m 329 -344 l 444 -461 l 692 -207 l 576 -90 z "},"ẞ":{"ha":1042,"x_min":0,"x_max":0,"o":"m 249 815 l 600 815 l 565 768 l 472 768 l 472 642 l 425 578 l 540 469 l 646 611 l 960 611 l 960 768 l 761 768 l 797 815 l 942 815 l 942 972 l 913 972 l 922 985 l 807 1094 l 717 972 l 82 972 l 82 0 l 249 0 z m 1128 -192 l 981 414 l 811 411 l 876 143 l 139 -33 l 144 -196 l 915 -12 l 960 -196 z "},"T":{"ha":943,"x_min":0,"x_max":0,"o":"m 932 972 l 11 972 l 11 815 l 388 815 l 388 0 l 554 0 l 554 815 l 932 815 z "},"Ŧ":{"ha":943,"x_min":0,"x_max":0,"o":"m 932 815 l 932 972 l 11 972 l 11 815 l 388 815 l 388 529 l 193 529 l 193 372 l 388 372 l 388 0 l 554 0 l 554 372 l 750 372 l 750 529 l 554 529 l 554 815 z "},"Ť":{"ha":943,"x_min":0,"x_max":0,"o":"m 681 1208 l 575 1313 l 472 1210 l 369 1313 l 264 1208 l 472 1000 z m 932 972 l 11 972 l 11 815 l 388 815 l 388 0 l 554 0 l 554 815 l 932 815 z "},"Ţ":{"ha":943,"x_min":0,"x_max":0,"o":"m 554 0 l 554 815 l 932 815 l 932 972 l 11 972 l 11 815 l 388 815 l 388 0 l 415 0 l 394 -124 b 450 -153 444 -131 450 -142 b 365 -168 450 -162 432 -168 l 365 -278 b 608 -153 547 -278 608 -224 b 526 -57 608 -115 583 -79 l 536 0 z "},"Ț":{"ha":943,"x_min":0,"x_max":0,"o":"m 932 972 l 11 972 l 11 815 l 388 815 l 388 0 l 554 0 l 554 815 l 932 815 z m 329 -344 l 444 -461 l 692 -207 l 576 -90 z "},"U":{"ha":1042,"x_min":0,"x_max":0,"o":"m 793 972 l 793 157 l 249 157 l 249 972 l 82 972 l 82 0 l 960 0 l 960 972 z "},"Ú":{"ha":1042,"x_min":0,"x_max":0,"o":"m 706 1211 l 603 1317 l 394 1108 l 500 1006 z m 793 972 l 793 157 l 249 157 l 249 972 l 82 972 l 82 0 l 960 0 l 960 972 z "},"Û":{"ha":1042,"x_min":0,"x_max":0,"o":"m 521 1108 l 624 1006 l 729 1108 l 521 1317 l 313 1108 l 418 1006 z m 793 972 l 793 157 l 249 157 l 249 972 l 82 972 l 82 0 l 960 0 l 960 972 z "},"Ü":{"ha":1042,"x_min":0,"x_max":0,"o":"m 463 1215 l 301 1215 l 301 1054 l 463 1054 z m 740 1215 l 579 1215 l 579 1054 l 740 1054 z m 793 972 l 793 157 l 249 157 l 249 972 l 82 972 l 82 0 l 960 0 l 960 972 z "},"Ù":{"ha":1042,"x_min":0,"x_max":0,"o":"m 647 1108 l 439 1317 l 336 1211 l 543 1006 z m 793 972 l 793 157 l 249 157 l 249 972 l 82 972 l 82 0 l 960 0 l 960 972 z "},"Ű":{"ha":1042,"x_min":0,"x_max":0,"o":"m 565 1211 l 463 1317 l 254 1108 l 360 1006 z m 654 1006 l 861 1211 l 757 1317 l 550 1108 z m 793 972 l 793 157 l 249 157 l 249 972 l 82 972 l 82 0 l 960 0 l 960 972 z "},"Ū":{"ha":1042,"x_min":0,"x_max":0,"o":"m 740 1221 l 301 1221 l 301 1054 l 740 1054 z m 793 972 l 793 157 l 249 157 l 249 972 l 82 972 l 82 0 l 960 0 l 960 972 z "},"Ų":{"ha":1042,"x_min":0,"x_max":0,"o":"m 793 972 l 793 157 l 249 157 l 249 972 l 82 972 l 82 0 l 490 0 b 417 -135 457 -32 417 -64 b 621 -278 417 -207 458 -278 l 621 -121 b 575 -81 593 -121 575 -101 b 617 0 575 -53 588 -25 l 960 0 l 960 972 z "},"Ů":{"ha":1042,"x_min":0,"x_max":0,"o":"m 521 1008 b 660 1147 597 1008 660 1071 b 521 1286 660 1222 597 1286 b 382 1147 444 1286 382 1222 b 521 1008 382 1071 444 1008 z m 521 1163 b 538 1147 529 1163 538 1156 b 521 1131 538 1139 529 1131 b 506 1147 513 1131 506 1139 b 521 1163 506 1156 513 1163 z m 793 972 l 793 157 l 249 157 l 249 972 l 82 972 l 82 0 l 960 0 l 960 972 z "},"V":{"ha":1042,"x_min":0,"x_max":0,"o":"m 957 989 l 249 239 l 249 972 l 82 972 l 82 0 l 249 0 l 1071 872 z "},"W":{"ha":1415,"x_min":0,"x_max":0,"o":"m 1167 972 l 1167 240 l 818 607 l 1071 872 l 957 989 l 708 726 l 458 989 l 344 872 l 597 607 l 249 240 l 249 972 l 82 972 l 82 0 l 249 0 l 708 486 l 1167 0 l 1333 0 l 1333 972 z "},"Ẃ":{"ha":1415,"x_min":0,"x_max":0,"o":"m 790 1317 l 582 1108 l 688 1006 l 893 1211 z m 1167 972 l 1167 240 l 818 607 l 1071 872 l 957 989 l 708 726 l 458 989 l 344 872 l 597 607 l 249 240 l 249 972 l 82 972 l 82 0 l 249 0 l 708 486 l 1167 0 l 1333 0 l 1333 972 z "},"Ŵ":{"ha":1415,"x_min":0,"x_max":0,"o":"m 917 1108 l 708 1317 l 500 1108 l 606 1006 l 708 1108 l 811 1006 z m 1167 972 l 1167 240 l 818 607 l 1071 872 l 957 989 l 708 726 l 458 989 l 344 872 l 597 607 l 249 240 l 249 972 l 82 972 l 82 0 l 249 0 l 708 486 l 1167 0 l 1333 0 l 1333 972 z "},"Ẅ":{"ha":1415,"x_min":0,"x_max":0,"o":"m 488 1215 l 488 1054 l 649 1054 l 649 1215 z m 765 1215 l 765 1054 l 926 1054 l 926 1215 z m 1167 972 l 1167 240 l 818 607 l 1071 872 l 957 989 l 708 726 l 458 989 l 344 872 l 597 607 l 249 240 l 249 972 l 82 972 l 82 0 l 249 0 l 708 486 l 1167 0 l 1333 0 l 1333 972 z "},"Ẁ":{"ha":1415,"x_min":0,"x_max":0,"o":"m 625 1317 l 522 1211 l 729 1006 l 833 1108 z m 1167 972 l 1167 240 l 818 607 l 1071 872 l 957 989 l 708 726 l 458 989 l 344 872 l 597 607 l 249 240 l 249 972 l 82 972 l 82 0 l 249 0 l 708 486 l 1167 0 l 1333 0 l 1333 972 z "},"X":{"ha":1035,"x_min":0,"x_max":0,"o":"m 1007 872 l 892 989 l 518 604 l 143 989 l 28 872 l 404 486 l 28 100 l 143 -17 l 518 368 l 892 -17 l 1007 100 l 631 486 z "},"Y":{"ha":1001,"x_min":0,"x_max":0,"o":"m 917 989 l 525 586 l 133 989 l 19 872 l 411 468 l 53 100 l 167 -17 l 1032 872 z "},"Ý":{"ha":1001,"x_min":0,"x_max":0,"o":"m 726 1211 l 624 1317 l 415 1108 l 521 1006 z m 917 989 l 525 586 l 133 989 l 19 872 l 411 468 l 53 100 l 167 -17 l 1032 872 z "},"Ŷ":{"ha":1001,"x_min":0,"x_max":0,"o":"m 542 1108 l 644 1006 l 750 1108 l 542 1317 l 333 1108 l 439 1006 z m 917 989 l 525 586 l 133 989 l 19 872 l 411 468 l 53 100 l 167 -17 l 1032 872 z "},"Ÿ":{"ha":1001,"x_min":0,"x_max":0,"o":"m 483 1215 l 322 1215 l 322 1054 l 483 1054 z m 761 1215 l 600 1215 l 600 1054 l 761 1054 z m 917 989 l 525 586 l 133 989 l 19 872 l 411 468 l 53 100 l 167 -17 l 1032 872 z "},"Ỳ":{"ha":1001,"x_min":0,"x_max":0,"o":"m 668 1108 l 460 1317 l 357 1211 l 564 1006 z m 917 989 l 525 586 l 133 989 l 19 872 l 411 468 l 53 100 l 167 -17 l 1032 872 z "},"Z":{"ha":972,"x_min":0,"x_max":0,"o":"m 54 972 l 54 815 l 932 815 l 932 972 z m 694 550 l 579 667 l 40 157 l 40 0 l 932 0 l 932 157 l 278 157 z "},"Ź":{"ha":972,"x_min":0,"x_max":0,"o":"m 671 1211 l 568 1317 l 360 1108 l 465 1006 z m 54 972 l 54 815 l 932 815 l 932 972 z m 694 550 l 579 667 l 40 157 l 40 0 l 932 0 l 932 157 l 278 157 z "},"Ž":{"ha":972,"x_min":0,"x_max":0,"o":"m 694 1208 l 589 1313 l 486 1210 l 383 1313 l 278 1208 l 486 1000 z m 54 972 l 54 815 l 932 815 l 932 972 z m 694 550 l 579 667 l 40 157 l 40 0 l 932 0 l 932 157 l 278 157 z "},"Ż":{"ha":972,"x_min":0,"x_max":0,"o":"m 567 1215 l 406 1215 l 406 1054 l 567 1054 z m 54 972 l 54 815 l 932 815 l 932 972 z m 694 550 l 579 667 l 40 157 l 40 0 l 932 0 l 932 157 l 278 157 z "},"a":{"ha":792,"x_min":0,"x_max":0,"o":"m 682 157 l 682 678 l 68 678 l 68 519 l 515 519 l 515 421 l 68 421 l 68 0 l 813 0 l 813 157 z m 235 157 l 235 263 l 515 263 l 515 157 z "},"á":{"ha":792,"x_min":0,"x_max":0,"o":"m 561 915 l 458 1021 l 250 813 l 356 710 z m 682 157 l 682 678 l 68 678 l 68 519 l 515 519 l 515 421 l 68 421 l 68 0 l 813 0 l 813 157 z m 235 157 l 235 263 l 515 263 l 515 157 z "},"ă":{"ha":792,"x_min":0,"x_max":0,"o":"m 378 733 b 611 963 539 733 617 846 l 482 963 b 378 879 481 932 451 879 b 274 963 304 879 275 932 l 144 963 b 378 733 139 846 217 733 z m 682 157 l 682 678 l 68 678 l 68 519 l 515 519 l 515 421 l 68 421 l 68 0 l 813 0 l 813 157 z m 235 157 l 235 263 l 515 263 l 515 157 z "},"â":{"ha":792,"x_min":0,"x_max":0,"o":"m 376 813 l 479 710 l 585 813 l 376 1021 l 168 813 l 274 710 z m 682 157 l 682 678 l 68 678 l 68 519 l 515 519 l 515 421 l 68 421 l 68 0 l 813 0 l 813 157 z m 235 157 l 235 263 l 515 263 l 515 157 z "},"ä":{"ha":792,"x_min":0,"x_max":0,"o":"m 318 919 l 157 919 l 157 758 l 318 758 z m 596 919 l 435 919 l 435 758 l 596 758 z m 682 157 l 682 678 l 68 678 l 68 519 l 515 519 l 515 421 l 68 421 l 68 0 l 813 0 l 813 157 z m 235 157 l 235 263 l 515 263 l 515 157 z "},"à":{"ha":792,"x_min":0,"x_max":0,"o":"m 503 813 l 294 1021 l 192 915 l 399 710 z m 682 157 l 682 678 l 68 678 l 68 519 l 515 519 l 515 421 l 68 421 l 68 0 l 813 0 l 813 157 z m 235 157 l 235 263 l 515 263 l 515 157 z "},"ā":{"ha":792,"x_min":0,"x_max":0,"o":"m 596 925 l 157 925 l 157 758 l 596 758 z m 682 157 l 682 678 l 68 678 l 68 519 l 515 519 l 515 421 l 68 421 l 68 0 l 813 0 l 813 157 z m 235 157 l 235 263 l 515 263 l 515 157 z "},"ą":{"ha":792,"x_min":0,"x_max":0,"o":"m 682 0 l 813 0 l 813 157 l 682 157 l 682 678 l 68 678 l 68 519 l 515 519 l 515 421 l 68 421 l 68 0 l 556 0 b 482 -135 522 -32 482 -64 b 686 -278 482 -207 524 -278 l 686 -121 b 640 -81 658 -121 640 -101 b 682 0 640 -53 653 -25 z m 235 157 l 235 263 l 515 263 l 515 157 z "},"å":{"ha":792,"x_min":0,"x_max":0,"o":"m 376 713 b 515 851 453 713 515 775 b 376 990 515 926 453 990 b 238 851 300 990 238 926 b 376 713 238 775 300 713 z m 376 867 b 393 851 385 867 393 860 b 376 835 393 843 385 835 b 361 851 368 835 361 843 b 376 867 361 860 368 867 z m 682 157 l 682 678 l 68 678 l 68 519 l 515 519 l 515 421 l 68 421 l 68 0 l 813 0 l 813 157 z m 235 157 l 235 263 l 515 263 l 515 157 z "},"ã":{"ha":792,"x_min":0,"x_max":0,"o":"m 313 786 b 475 742 349 786 406 742 b 635 924 558 742 635 817 l 490 924 b 469 899 486 899 481 899 b 315 943 433 899 390 943 b 149 761 224 943 149 869 l 290 761 b 313 786 294 788 303 786 z m 682 157 l 682 678 l 68 678 l 68 519 l 515 519 l 515 421 l 68 421 l 68 0 l 813 0 l 813 157 z m 235 157 l 235 263 l 515 263 l 515 157 z "},"æ":{"ha":1231,"x_min":0,"x_max":0,"o":"m 1168 678 l 68 678 l 68 519 l 515 519 l 515 419 l 68 419 l 68 0 l 1168 0 l 1168 157 l 682 157 l 682 263 l 1168 263 z m 1001 419 l 682 419 l 682 519 l 1001 519 z m 515 157 l 235 157 l 235 263 l 515 263 z "},"b":{"ha":778,"x_min":0,"x_max":0,"o":"m 715 678 l 229 678 l 229 972 l 63 972 l 63 0 l 715 0 z m 549 157 l 229 157 l 229 519 l 549 519 z "},"c":{"ha":667,"x_min":0,"x_max":0,"o":"m 650 519 l 650 678 l 63 678 l 63 0 l 650 0 l 650 157 l 229 157 l 229 519 z "},"ć":{"ha":667,"x_min":0,"x_max":0,"o":"m 574 915 l 471 1021 l 263 813 l 368 710 z m 650 519 l 650 678 l 63 678 l 63 0 l 650 0 l 650 157 l 229 157 l 229 519 z "},"č":{"ha":667,"x_min":0,"x_max":0,"o":"m 597 913 l 492 1017 l 389 914 l 286 1017 l 181 913 l 389 704 z m 650 519 l 650 678 l 63 678 l 63 0 l 650 0 l 650 157 l 229 157 l 229 519 z "},"ç":{"ha":667,"x_min":0,"x_max":0,"o":"m 650 519 l 650 678 l 63 678 l 63 0 l 311 0 l 290 -124 b 346 -153 340 -131 346 -142 b 261 -168 346 -162 328 -168 l 261 -278 b 504 -153 443 -278 504 -224 b 422 -57 504 -115 479 -79 l 432 0 l 650 0 l 650 157 l 229 157 l 229 519 z "},"ċ":{"ha":667,"x_min":0,"x_max":0,"o":"m 469 919 l 308 919 l 308 758 l 469 758 z m 650 519 l 650 678 l 63 678 l 63 0 l 650 0 l 650 157 l 229 157 l 229 519 z "},"d":{"ha":778,"x_min":0,"x_max":0,"o":"m 549 972 l 549 678 l 63 678 l 63 0 l 715 0 l 715 972 z m 549 157 l 229 157 l 229 519 l 549 519 z "},"ð":{"ha":778,"x_min":0,"x_max":0,"o":"m 715 972 l 375 972 l 375 1117 l 219 1117 l 219 972 l 63 972 l 63 815 l 218 815 l 218 701 l 375 701 l 375 815 l 549 815 l 549 678 l 63 678 l 63 0 l 715 0 z m 549 157 l 229 157 l 229 519 l 549 519 z "},"ď":{"ha":1046,"x_min":0,"x_max":0,"o":"m 549 678 l 63 678 l 63 0 l 715 0 l 715 972 l 549 972 z m 821 972 l 821 519 l 988 519 l 988 972 z m 549 157 l 229 157 l 229 519 l 549 519 z "},"đ":{"ha":778,"x_min":0,"x_max":0,"o":"m 778 886 l 715 886 l 715 972 l 549 972 l 549 886 l 271 886 l 271 728 l 549 728 l 549 678 l 63 678 l 63 0 l 715 0 l 715 728 l 778 728 z m 549 157 l 229 157 l 229 519 l 549 519 z "},"e":{"ha":778,"x_min":0,"x_max":0,"o":"m 715 678 l 63 678 l 63 0 l 715 0 l 715 157 l 229 157 l 229 257 l 715 257 z m 549 414 l 229 414 l 229 519 l 549 519 z "},"é":{"ha":778,"x_min":0,"x_max":0,"o":"m 574 915 l 471 1021 l 263 813 l 368 710 z m 715 678 l 63 678 l 63 0 l 715 0 l 715 157 l 229 157 l 229 257 l 715 257 z m 549 414 l 229 414 l 229 519 l 549 519 z "},"ě":{"ha":778,"x_min":0,"x_max":0,"o":"m 597 913 l 492 1017 l 389 914 l 286 1017 l 181 913 l 389 704 z m 715 678 l 63 678 l 63 0 l 715 0 l 715 157 l 229 157 l 229 257 l 715 257 z m 549 414 l 229 414 l 229 519 l 549 519 z "},"ê":{"ha":778,"x_min":0,"x_max":0,"o":"m 389 813 l 492 710 l 597 813 l 389 1021 l 181 813 l 286 710 z m 715 678 l 63 678 l 63 0 l 715 0 l 715 157 l 229 157 l 229 257 l 715 257 z m 549 414 l 229 414 l 229 519 l 549 519 z "},"ë":{"ha":778,"x_min":0,"x_max":0,"o":"m 331 919 l 169 919 l 169 758 l 331 758 z m 608 919 l 447 919 l 447 758 l 608 758 z m 715 678 l 63 678 l 63 0 l 715 0 l 715 157 l 229 157 l 229 257 l 715 257 z m 549 414 l 229 414 l 229 519 l 549 519 z "},"ė":{"ha":778,"x_min":0,"x_max":0,"o":"m 469 919 l 308 919 l 308 758 l 469 758 z m 715 678 l 63 678 l 63 0 l 715 0 l 715 157 l 229 157 l 229 257 l 715 257 z m 549 414 l 229 414 l 229 519 l 549 519 z "},"è":{"ha":778,"x_min":0,"x_max":0,"o":"m 515 813 l 307 1021 l 204 915 l 411 710 z m 715 678 l 63 678 l 63 0 l 715 0 l 715 157 l 229 157 l 229 257 l 715 257 z m 549 414 l 229 414 l 229 519 l 549 519 z "},"ē":{"ha":778,"x_min":0,"x_max":0,"o":"m 608 925 l 169 925 l 169 758 l 608 758 z m 715 678 l 63 678 l 63 0 l 715 0 l 715 157 l 229 157 l 229 257 l 715 257 z m 549 414 l 229 414 l 229 519 l 549 519 z "},"ę":{"ha":778,"x_min":0,"x_max":0,"o":"m 674 -81 b 715 0 674 -53 686 -25 l 715 157 l 229 157 l 229 257 l 715 257 l 715 678 l 63 678 l 63 0 l 589 0 b 515 -135 556 -32 515 -64 b 719 -278 515 -207 557 -278 l 719 -121 b 674 -81 692 -121 674 -101 z m 229 519 l 549 519 l 549 414 l 229 414 z "},"f":{"ha":525,"x_min":0,"x_max":0,"o":"m 529 815 l 529 972 l 147 972 l 147 678 l 22 678 l 22 519 l 147 519 l 147 0 l 314 0 l 314 519 l 529 519 l 529 678 l 314 678 l 314 815 z "},"g":{"ha":778,"x_min":0,"x_max":0,"o":"m 715 678 l 63 678 l 63 0 l 549 0 l 549 -121 l 63 -121 l 63 -278 l 715 -278 z m 549 157 l 229 157 l 229 519 l 549 519 z "},"ğ":{"ha":778,"x_min":0,"x_max":0,"o":"m 389 733 b 622 963 550 733 628 846 l 493 963 b 389 879 492 932 463 879 b 285 963 315 879 286 932 l 156 963 b 389 733 150 846 228 733 z m 715 678 l 63 678 l 63 0 l 549 0 l 549 -121 l 63 -121 l 63 -278 l 715 -278 z m 549 157 l 229 157 l 229 519 l 549 519 z "},"ģ":{"ha":778,"x_min":0,"x_max":0,"o":"m 574 915 l 471 1021 l 263 813 l 368 710 z m 715 678 l 63 678 l 63 0 l 549 0 l 549 -121 l 63 -121 l 63 -278 l 715 -278 z m 549 157 l 229 157 l 229 519 l 549 519 z "},"ġ":{"ha":778,"x_min":0,"x_max":0,"o":"m 469 919 l 308 919 l 308 758 l 469 758 z m 715 678 l 63 678 l 63 0 l 549 0 l 549 -121 l 63 -121 l 63 -278 l 715 -278 z m 549 157 l 229 157 l 229 519 l 549 519 z "},"h":{"ha":778,"x_min":0,"x_max":0,"o":"m 715 678 l 229 678 l 229 972 l 63 972 l 63 0 l 229 0 l 229 519 l 549 519 l 549 0 l 715 0 z "},"ħ":{"ha":778,"x_min":0,"x_max":0,"o":"m 715 678 l 229 678 l 229 728 l 507 728 l 507 886 l 229 886 l 229 972 l 63 972 l 63 886 l 0 886 l 0 728 l 63 728 l 63 0 l 229 0 l 229 519 l 549 519 l 549 0 l 715 0 z "},"i":{"ha":292,"x_min":0,"x_max":0,"o":"m 63 678 l 63 0 l 229 0 l 229 678 z "},"ı":{"ha":292,"x_min":0,"x_max":0,"o":"m 63 678 l 63 0 l 229 0 l 229 678 z "},"í":{"ha":292,"x_min":0,"x_max":0,"o":"m 228 1021 l 19 813 l 125 710 l 331 915 z m 63 678 l 63 0 l 229 0 l 229 678 z "},"î":{"ha":292,"x_min":0,"x_max":0,"o":"m 354 813 l 146 1021 l -62 813 l 43 710 l 146 813 l 249 710 z m 63 678 l 63 0 l 229 0 l 229 678 z "},"ï":{"ha":292,"x_min":0,"x_max":0,"o":"m -74 919 l -74 758 l 88 758 l 88 919 z m 204 919 l 204 758 l 365 758 l 365 919 z m 63 678 l 63 0 l 229 0 l 229 678 z "},"ì":{"ha":292,"x_min":0,"x_max":0,"o":"m 64 1021 l -39 915 l 168 710 l 272 813 z m 63 678 l 63 0 l 229 0 l 229 678 z "},"ī":{"ha":292,"x_min":0,"x_max":0,"o":"m -74 925 l -74 758 l 365 758 l 365 925 z m 63 678 l 63 0 l 229 0 l 229 678 z "},"į":{"ha":292,"x_min":0,"x_max":0,"o":"m 226 919 l 65 919 l 65 758 l 226 758 z m 188 -81 b 229 0 188 -53 200 -25 l 229 678 l 63 678 l 63 0 l 103 0 b 29 -135 69 -32 29 -64 b 233 -278 29 -207 71 -278 l 233 -121 b 188 -81 206 -121 188 -101 z "},"j":{"ha":292,"x_min":0,"x_max":0,"o":"m 63 -278 l 229 -278 l 229 667 l 63 667 z "},"k":{"ha":731,"x_min":0,"x_max":0,"o":"m 751 0 l 504 369 l 735 678 l 533 678 l 229 267 l 229 972 l 63 972 l 63 0 l 229 0 l 400 229 l 556 0 z "},"ķ":{"ha":731,"x_min":0,"x_max":0,"o":"m 400 229 l 556 0 l 751 0 l 504 369 l 735 678 l 533 678 l 229 267 l 229 972 l 63 972 l 63 0 l 229 0 z m 201 -344 l 317 -461 l 564 -207 l 449 -90 z "},"l":{"ha":292,"x_min":0,"x_max":0,"o":"m 63 972 l 63 0 l 229 0 l 229 972 z "},"ĺ":{"ha":292,"x_min":0,"x_max":0,"o":"m 228 1456 l 19 1247 l 125 1144 l 331 1350 z m 63 972 l 63 0 l 229 0 l 229 972 z "},"ľ":{"ha":560,"x_min":0,"x_max":0,"o":"m 63 972 l 63 0 l 229 0 l 229 972 z m 335 972 l 335 519 l 501 519 l 501 972 z "},"ļ":{"ha":292,"x_min":0,"x_max":0,"o":"m 63 972 l 63 0 l 229 0 l 229 972 z m 229 -90 l -18 -344 l 97 -461 l 344 -207 z "},"ł":{"ha":376,"x_min":0,"x_max":0,"o":"m 382 706 l 282 638 l 282 972 l 115 972 l 115 544 l 14 475 l 14 285 l 115 354 l 115 0 l 282 0 l 282 449 l 382 515 z "},"m":{"ha":1125,"x_min":0,"x_max":0,"o":"m 1063 678 l 63 678 l 63 0 l 229 0 l 229 519 l 479 519 l 479 0 l 646 0 l 646 519 l 896 519 l 896 0 l 1063 0 z "},"n":{"ha":778,"x_min":0,"x_max":0,"o":"m 715 678 l 63 678 l 63 0 l 229 0 l 229 519 l 549 519 l 549 0 l 715 0 z "},"ń":{"ha":778,"x_min":0,"x_max":0,"o":"m 574 915 l 471 1021 l 263 813 l 368 710 z m 715 678 l 63 678 l 63 0 l 229 0 l 229 519 l 549 519 l 549 0 l 715 0 z "},"ň":{"ha":778,"x_min":0,"x_max":0,"o":"m 597 913 l 492 1017 l 389 914 l 286 1017 l 181 913 l 389 704 z m 715 678 l 63 678 l 63 0 l 229 0 l 229 519 l 549 519 l 549 0 l 715 0 z "},"ņ":{"ha":778,"x_min":0,"x_max":0,"o":"m 715 678 l 63 678 l 63 0 l 229 0 l 229 519 l 549 519 l 549 0 l 715 0 z m 225 -344 l 340 -461 l 588 -207 l 472 -90 z "},"ŋ":{"ha":778,"x_min":0,"x_max":0,"o":"m 715 678 l 63 678 l 63 0 l 229 0 l 229 519 l 549 519 l 549 -278 l 715 -278 z "},"ñ":{"ha":778,"x_min":0,"x_max":0,"o":"m 325 786 b 488 742 361 786 418 742 b 647 924 571 742 647 817 l 503 924 b 482 899 499 899 493 899 b 328 943 446 899 403 943 b 161 761 236 943 161 869 l 303 761 b 325 786 307 788 315 786 z m 715 678 l 63 678 l 63 0 l 229 0 l 229 519 l 549 519 l 549 0 l 715 0 z "},"o":{"ha":778,"x_min":0,"x_max":0,"o":"m 715 678 l 63 678 l 63 0 l 715 0 z m 549 157 l 229 157 l 229 519 l 549 519 z "},"ó":{"ha":778,"x_min":0,"x_max":0,"o":"m 574 915 l 471 1021 l 263 813 l 368 710 z m 715 678 l 63 678 l 63 0 l 715 0 z m 549 157 l 229 157 l 229 519 l 549 519 z "},"ô":{"ha":778,"x_min":0,"x_max":0,"o":"m 389 813 l 492 710 l 597 813 l 389 1021 l 181 813 l 286 710 z m 715 678 l 63 678 l 63 0 l 715 0 z m 549 157 l 229 157 l 229 519 l 549 519 z "},"ö":{"ha":778,"x_min":0,"x_max":0,"o":"m 331 919 l 169 919 l 169 758 l 331 758 z m 608 919 l 447 919 l 447 758 l 608 758 z m 715 678 l 63 678 l 63 0 l 715 0 z m 549 157 l 229 157 l 229 519 l 549 519 z "},"ò":{"ha":778,"x_min":0,"x_max":0,"o":"m 515 813 l 307 1021 l 204 915 l 411 710 z m 715 678 l 63 678 l 63 0 l 715 0 z m 549 157 l 229 157 l 229 519 l 549 519 z "},"ő":{"ha":778,"x_min":0,"x_max":0,"o":"m 433 915 l 331 1021 l 122 813 l 228 710 z m 522 710 l 729 915 l 625 1021 l 418 813 z m 715 678 l 63 678 l 63 0 l 715 0 z m 549 157 l 229 157 l 229 519 l 549 519 z "},"ō":{"ha":778,"x_min":0,"x_max":0,"o":"m 608 925 l 169 925 l 169 758 l 608 758 z m 715 678 l 63 678 l 63 0 l 715 0 z m 549 157 l 229 157 l 229 519 l 549 519 z "},"ø":{"ha":778,"x_min":0,"x_max":0,"o":"m 715 678 l 63 678 l 63 0 l 208 0 l 210 -1 l 211 0 l 715 0 z m 439 519 l 229 274 l 229 519 z m 344 157 l 549 397 l 549 157 z "},"õ":{"ha":778,"x_min":0,"x_max":0,"o":"m 325 786 b 488 742 361 786 418 742 b 647 924 571 742 647 817 l 503 924 b 482 899 499 899 493 899 b 328 943 446 899 403 943 b 161 761 236 943 161 869 l 303 761 b 325 786 307 788 315 786 z m 715 678 l 63 678 l 63 0 l 715 0 z m 549 157 l 229 157 l 229 519 l 549 519 z "},"œ":{"ha":1264,"x_min":0,"x_max":0,"o":"m 1201 678 l 63 678 l 63 0 l 1201 0 l 1201 157 l 715 157 l 715 257 l 1201 257 z m 549 157 l 229 157 l 229 519 l 549 519 z m 1035 414 l 715 414 l 715 519 l 1035 519 z "},"p":{"ha":778,"x_min":0,"x_max":0,"o":"m 715 678 l 63 678 l 63 -278 l 229 -278 l 229 0 l 715 0 z m 549 157 l 229 157 l 229 519 l 549 519 z "},"þ":{"ha":778,"x_min":0,"x_max":0,"o":"m 715 678 l 229 678 l 229 972 l 63 972 l 63 -278 l 229 -278 l 229 0 l 715 0 z m 549 157 l 229 157 l 229 519 l 549 519 z "},"q":{"ha":778,"x_min":0,"x_max":0,"o":"m 715 678 l 63 678 l 63 0 l 549 0 l 549 -278 l 715 -278 z m 549 157 l 229 157 l 229 519 l 549 519 z "},"r":{"ha":492,"x_min":0,"x_max":0,"o":"m 444 678 l 63 678 l 63 0 l 229 0 l 229 519 l 444 519 z "},"ŕ":{"ha":492,"x_min":0,"x_max":0,"o":"m 439 915 l 336 1021 l 128 813 l 233 710 z m 444 678 l 63 678 l 63 0 l 229 0 l 229 519 l 444 519 z "},"ř":{"ha":492,"x_min":0,"x_max":0,"o":"m 463 913 l 357 1017 l 254 914 l 151 1017 l 46 913 l 254 704 z m 444 678 l 63 678 l 63 0 l 229 0 l 229 519 l 444 519 z "},"ŗ":{"ha":492,"x_min":0,"x_max":0,"o":"m 444 678 l 63 678 l 63 0 l 229 0 l 229 519 l 444 519 z m -17 -344 l 99 -461 l 346 -207 l 231 -90 z "},"s":{"ha":750,"x_min":0,"x_max":0,"o":"m 688 519 l 688 678 l 63 678 l 63 257 l 521 257 l 521 157 l 63 157 l 63 0 l 688 0 l 688 414 l 229 414 l 229 519 z "},"ś":{"ha":750,"x_min":0,"x_max":0,"o":"m 560 915 l 457 1021 l 249 813 l 354 710 z m 688 519 l 688 678 l 63 678 l 63 257 l 521 257 l 521 157 l 63 157 l 63 0 l 688 0 l 688 414 l 229 414 l 229 519 z "},"š":{"ha":750,"x_min":0,"x_max":0,"o":"m 583 913 l 478 1017 l 375 914 l 272 1017 l 167 913 l 375 704 z m 688 519 l 688 678 l 63 678 l 63 257 l 521 257 l 521 157 l 63 157 l 63 0 l 688 0 l 688 414 l 229 414 l 229 519 z "},"ş":{"ha":750,"x_min":0,"x_max":0,"o":"m 688 519 l 688 678 l 63 678 l 63 257 l 521 257 l 521 157 l 63 157 l 63 0 l 317 0 l 296 -124 b 351 -153 346 -131 351 -142 b 267 -168 351 -162 333 -168 l 267 -278 b 510 -153 449 -278 510 -224 b 428 -57 510 -115 485 -79 l 438 0 l 688 0 l 688 414 l 229 414 l 229 519 z "},"ș":{"ha":750,"x_min":0,"x_max":0,"o":"m 688 519 l 688 678 l 63 678 l 63 257 l 521 257 l 521 157 l 63 157 l 63 0 l 688 0 l 688 414 l 229 414 l 229 519 z m 231 -344 l 346 -461 l 593 -207 l 478 -90 z "},"ß":{"ha":932,"x_min":0,"x_max":0,"o":"m 276 0 l 276 815 l 540 815 l 485 731 l 367 731 l 367 574 l 383 574 l 356 532 l 471 422 l 569 574 l 869 574 l 869 731 l 672 731 l 726 815 l 836 815 l 836 972 l 829 972 l 832 976 l 717 1086 l 643 972 l 110 972 l 110 678 l -15 678 l -15 519 l 110 519 l 110 0 z m 1001 -200 l 874 376 l 706 372 l 760 128 l 221 -40 l 226 -203 l 794 -25 l 833 -203 z "},"t":{"ha":525,"x_min":0,"x_max":0,"o":"m 529 519 l 529 678 l 314 678 l 314 863 l 147 863 l 147 678 l 22 678 l 22 519 l 147 519 l 147 0 l 529 0 l 529 157 l 314 157 l 314 519 z "},"ŧ":{"ha":525,"x_min":0,"x_max":0,"o":"m 529 519 l 529 678 l 314 678 l 314 863 l 147 863 l 147 678 l 22 678 l 22 519 l 147 519 l 147 424 l 22 424 l 22 267 l 147 267 l 147 0 l 529 0 l 529 157 l 314 157 l 314 267 l 529 267 l 529 424 l 314 424 l 314 519 z "},"ť":{"ha":525,"x_min":0,"x_max":0,"o":"m 529 519 l 529 678 l 314 678 l 314 742 l 464 742 l 464 972 l 297 972 l 297 863 l 147 863 l 147 678 l 22 678 l 22 519 l 147 519 l 147 0 l 529 0 l 529 157 l 314 157 l 314 519 z "},"ţ":{"ha":525,"x_min":0,"x_max":0,"o":"m 529 519 l 529 678 l 314 678 l 314 863 l 147 863 l 147 678 l 22 678 l 22 519 l 147 519 l 147 0 l 268 0 l 247 -124 b 303 -153 297 -131 303 -142 b 218 -168 303 -162 285 -168 l 218 -278 b 461 -153 400 -278 461 -224 b 379 -57 461 -115 436 -79 l 389 0 l 529 0 l 529 157 l 314 157 l 314 519 z "},"ț":{"ha":525,"x_min":0,"x_max":0,"o":"m 529 0 l 529 157 l 314 157 l 314 519 l 529 519 l 529 678 l 314 678 l 314 863 l 147 863 l 147 678 l 22 678 l 22 519 l 147 519 l 147 0 z m 429 -90 l 182 -344 l 297 -461 l 544 -207 z "},"u":{"ha":778,"x_min":0,"x_max":0,"o":"m 549 678 l 549 158 l 229 158 l 229 678 l 63 678 l 63 1 l 715 1 l 715 678 z "},"ú":{"ha":778,"x_min":0,"x_max":0,"o":"m 574 915 l 471 1021 l 263 813 l 368 710 z m 549 678 l 549 158 l 229 158 l 229 678 l 63 678 l 63 1 l 715 1 l 715 678 z "},"û":{"ha":778,"x_min":0,"x_max":0,"o":"m 389 813 l 492 710 l 597 813 l 389 1021 l 181 813 l 286 710 z m 549 678 l 549 158 l 229 158 l 229 678 l 63 678 l 63 1 l 715 1 l 715 678 z "},"ü":{"ha":778,"x_min":0,"x_max":0,"o":"m 331 919 l 169 919 l 169 758 l 331 758 z m 608 919 l 447 919 l 447 758 l 608 758 z m 549 678 l 549 158 l 229 158 l 229 678 l 63 678 l 63 1 l 715 1 l 715 678 z "},"ù":{"ha":778,"x_min":0,"x_max":0,"o":"m 515 813 l 307 1021 l 204 915 l 411 710 z m 549 678 l 549 158 l 229 158 l 229 678 l 63 678 l 63 1 l 715 1 l 715 678 z "},"ű":{"ha":778,"x_min":0,"x_max":0,"o":"m 433 915 l 331 1021 l 122 813 l 228 710 z m 522 710 l 729 915 l 625 1021 l 418 813 z m 549 158 l 229 158 l 229 678 l 63 678 l 63 1 l 715 1 l 715 678 l 549 678 z "},"ū":{"ha":778,"x_min":0,"x_max":0,"o":"m 608 925 l 169 925 l 169 758 l 608 758 z m 549 678 l 549 158 l 229 158 l 229 678 l 63 678 l 63 1 l 715 1 l 715 678 z "},"ų":{"ha":778,"x_min":0,"x_max":0,"o":"m 549 678 l 549 158 l 229 158 l 229 678 l 63 678 l 63 1 l 715 1 l 715 678 z m 422 -81 b 464 0 422 -53 435 -25 l 338 0 b 264 -135 304 -32 264 -64 b 468 -278 264 -207 306 -278 l 468 -121 b 422 -81 440 -121 422 -101 z "},"ů":{"ha":778,"x_min":0,"x_max":0,"o":"m 389 713 b 528 851 465 713 528 775 b 389 990 528 926 465 990 b 250 851 313 990 250 926 b 389 713 250 775 313 713 z m 389 867 b 406 851 397 867 406 860 b 389 835 406 843 397 835 b 374 851 381 835 374 843 b 389 867 374 860 381 867 z m 549 678 l 549 158 l 229 158 l 229 678 l 63 678 l 63 1 l 715 1 l 715 678 z "},"v":{"ha":715,"x_min":0,"x_max":0,"o":"m 553 678 l 358 206 l 168 678 l -17 678 l 263 0 l 446 0 l 729 678 z "},"w":{"ha":1043,"x_min":0,"x_max":0,"o":"m 875 678 l 740 249 l 604 678 l 438 678 l 301 249 l 167 678 l -17 678 l 201 0 l 383 0 l 521 439 l 660 0 l 840 0 l 1058 678 z "},"ẃ":{"ha":1043,"x_min":0,"x_max":0,"o":"m 708 915 l 606 1021 l 397 813 l 503 710 z m 875 678 l 740 249 l 604 678 l 438 678 l 301 249 l 167 678 l -17 678 l 201 0 l 383 0 l 521 439 l 660 0 l 840 0 l 1058 678 z "},"ŵ":{"ha":1043,"x_min":0,"x_max":0,"o":"m 524 813 l 626 710 l 732 813 l 524 1021 l 315 813 l 421 710 z m 875 678 l 740 249 l 604 678 l 438 678 l 301 249 l 167 678 l -17 678 l 201 0 l 383 0 l 521 439 l 660 0 l 840 0 l 1058 678 z "},"ẅ":{"ha":1043,"x_min":0,"x_max":0,"o":"m 464 919 l 303 919 l 303 758 l 464 758 z m 742 919 l 581 919 l 581 758 l 742 758 z m 875 678 l 740 249 l 604 678 l 438 678 l 301 249 l 167 678 l -17 678 l 201 0 l 383 0 l 521 439 l 660 0 l 840 0 l 1058 678 z "},"ẁ":{"ha":1043,"x_min":0,"x_max":0,"o":"m 649 813 l 440 1021 l 338 915 l 544 710 z m 875 678 l 740 249 l 604 678 l 438 678 l 301 249 l 167 678 l -17 678 l 201 0 l 383 0 l 521 439 l 660 0 l 840 0 l 1058 678 z "},"x":{"ha":749,"x_min":0,"x_max":0,"o":"m 765 678 l 560 678 l 386 467 l 215 678 l 4 678 l 276 344 l -6 0 l 193 0 l 378 221 l 558 0 l 765 0 l 488 342 z "},"y":{"ha":715,"x_min":0,"x_max":0,"o":"m 553 678 l 358 207 l 168 678 l -17 678 l 263 1 l 147 -278 l 329 -278 l 729 678 z "},"ý":{"ha":715,"x_min":0,"x_max":0,"o":"m 543 915 l 440 1021 l 232 813 l 338 710 z m 553 678 l 358 207 l 168 678 l -17 678 l 263 1 l 147 -278 l 329 -278 l 729 678 z "},"ŷ":{"ha":715,"x_min":0,"x_max":0,"o":"m 358 813 l 461 710 l 567 813 l 358 1021 l 150 813 l 256 710 z m 553 678 l 358 207 l 168 678 l -17 678 l 263 1 l 147 -278 l 329 -278 l 729 678 z "},"ÿ":{"ha":715,"x_min":0,"x_max":0,"o":"m 299 919 l 138 919 l 138 758 l 299 758 z m 576 919 l 415 919 l 415 758 l 576 758 z m 553 678 l 358 207 l 168 678 l -17 678 l 263 1 l 147 -278 l 329 -278 l 729 678 z "},"ỳ":{"ha":715,"x_min":0,"x_max":0,"o":"m 483 813 l 275 1021 l 172 915 l 379 710 z m 553 678 l 358 207 l 168 678 l -17 678 l 263 1 l 147 -278 l 329 -278 l 729 678 z "},"z":{"ha":799,"x_min":0,"x_max":0,"o":"m 307 157 l 717 519 l 717 678 l 89 678 l 89 519 l 485 519 l 75 157 l 75 0 l 724 0 l 724 157 z "},"ź":{"ha":799,"x_min":0,"x_max":0,"o":"m 585 915 l 482 1021 l 274 813 l 379 710 z m 307 157 l 717 519 l 717 678 l 89 678 l 89 519 l 485 519 l 75 157 l 75 0 l 724 0 l 724 157 z "},"ž":{"ha":799,"x_min":0,"x_max":0,"o":"m 608 913 l 503 1017 l 400 914 l 297 1017 l 192 913 l 400 704 z m 307 157 l 717 519 l 717 678 l 89 678 l 89 519 l 485 519 l 75 157 l 75 0 l 724 0 l 724 157 z "},"ż":{"ha":799,"x_min":0,"x_max":0,"o":"m 481 919 l 319 919 l 319 758 l 481 758 z m 307 157 l 717 519 l 717 678 l 89 678 l 89 519 l 485 519 l 75 157 l 75 0 l 724 0 l 724 157 z "},"⁄":{"ha":854,"x_min":0,"x_max":0,"o":"m -42 100 l 74 -17 l 896 872 l 782 989 z "},".":{"ha":325,"x_min":0,"x_max":0,"o":"m 82 161 l 82 0 l 243 0 l 243 161 z "},",":{"ha":435,"x_min":0,"x_max":0,"o":"m 264 240 l 18 -15 l 132 -132 l 379 124 z "},":":{"ha":325,"x_min":0,"x_max":0,"o":"m 82 678 l 82 515 l 243 515 l 243 678 z m 82 161 l 82 0 l 243 0 l 243 161 z "},";":{"ha":435,"x_min":0,"x_max":0,"o":"m 119 678 l 119 515 l 282 515 l 282 678 z m 264 240 l 18 -15 l 132 -132 l 379 124 z "},"…":{"ha":881,"x_min":0,"x_max":0,"o":"m 82 161 l 82 0 l 243 0 l 243 161 z m 360 161 l 360 0 l 521 0 l 521 161 z m 638 161 l 638 0 l 799 0 l 799 161 z "},"!":{"ha":325,"x_min":0,"x_max":0,"o":"m 79 972 l 79 297 l 246 297 l 246 972 z m 82 161 l 82 0 l 243 0 l 243 161 z "},"¡":{"ha":325,"x_min":0,"x_max":0,"o":"m 243 515 l 243 678 l 82 678 l 82 515 z m 246 -296 l 246 381 l 79 381 l 79 -296 z "},"?":{"ha":953,"x_min":0,"x_max":0,"o":"m 33 972 l 33 815 l 688 815 l 272 422 l 386 306 l 925 815 l 925 972 z m 310 0 l 471 0 l 471 161 l 310 161 z "},"¿":{"ha":953,"x_min":0,"x_max":0,"o":"m 643 678 l 482 678 l 482 515 l 643 515 z m 267 -137 l 682 256 l 567 372 l 28 -137 l 28 -296 l 921 -296 l 921 -137 z "},"·":{"ha":325,"x_min":0,"x_max":0,"o":"m 82 443 l 82 282 l 243 282 l 243 443 z "},"•":{"ha":468,"x_min":0,"x_max":0,"o":"m 82 639 l 82 335 l 386 335 l 386 639 z "},"*":{"ha":783,"x_min":0,"x_max":0,"o":"m 682 686 l 644 829 l 433 743 l 468 972 l 317 972 l 350 743 l 139 829 l 103 686 l 331 665 l 171 488 l 301 410 l 392 624 l 482 410 l 613 488 l 453 665 z "},"#":{"ha":1090,"x_min":0,"x_max":0,"o":"m 1047 601 l 1076 758 l 894 758 l 932 972 l 765 972 l 728 758 l 464 758 l 501 972 l 335 972 l 297 758 l 118 758 l 89 601 l 269 601 l 228 365 l 47 365 l 19 208 l 200 208 l 163 0 l 329 0 l 367 208 l 631 208 l 593 0 l 760 0 l 797 208 l 978 208 l 1006 365 l 825 365 l 867 601 z m 658 365 l 394 365 l 436 601 l 700 601 z "},"/":{"ha":854,"x_min":0,"x_max":0,"o":"m -42 100 l 74 -17 l 896 872 l 782 989 z "},"\\":{"ha":854,"x_min":0,"x_max":0,"o":"m 896 100 l 74 989 l -42 872 l 781 -17 z "},"(":{"ha":456,"x_min":0,"x_max":0,"o":"m 424 1111 l 257 1111 l 76 417 l 257 -278 l 424 -278 l 243 417 z "},")":{"ha":456,"x_min":0,"x_max":0,"o":"m 243 1111 l 76 1111 l 257 417 l 76 -278 l 243 -278 l 424 417 z "},"{":{"ha":493,"x_min":0,"x_max":0,"o":"m 328 954 l 463 954 l 463 1111 l 161 1111 l 161 629 l 42 417 l 161 204 l 161 -278 l 463 -278 l 463 -121 l 328 -121 l 328 222 l 226 417 l 328 611 z "},"}":{"ha":493,"x_min":0,"x_max":0,"o":"m 332 629 l 332 1111 l 32 1111 l 32 954 l 165 954 l 165 611 l 267 417 l 165 222 l 165 -121 l 32 -121 l 32 -278 l 332 -278 l 332 204 l 451 417 z "},"[":{"ha":493,"x_min":0,"x_max":0,"o":"m 463 954 l 463 1111 l 76 1111 l 76 -278 l 463 -278 l 463 -121 l 243 -121 l 243 954 z "},"]":{"ha":539,"x_min":0,"x_max":0,"o":"m 463 1111 l 76 1111 l 76 954 l 296 954 l 296 -121 l 76 -121 l 76 -278 l 463 -278 z "},"-":{"ha":740,"x_min":0,"x_max":0,"o":"m 63 499 l 63 342 l 678 342 l 678 499 z "},"–":{"ha":918,"x_min":0,"x_max":0,"o":"m 0 488 l 0 331 l 918 331 l 918 488 z "},"—":{"ha":1283,"x_min":0,"x_max":0,"o":"m 0 488 l 0 331 l 1283 331 l 1283 488 z "},"_":{"ha":615,"x_min":0,"x_max":0,"o":"m 0 0 l 0 -157 l 615 -157 l 615 0 z "},"‚":{"ha":435,"x_min":0,"x_max":0,"o":"m 264 240 l 18 -15 l 132 -132 l 379 124 z "},"„":{"ha":711,"x_min":0,"x_max":0,"o":"m 264 240 l 18 -15 l 132 -132 l 379 124 z m 540 240 l 293 -15 l 408 -132 l 656 124 z "},"“":{"ha":711,"x_min":0,"x_max":0,"o":"m -28 475 l 404 919 l 203 1124 l -229 679 z m 383 475 l 815 919 l 615 1124 l 182 679 z "},"”":{"ha":711,"x_min":0,"x_max":0,"o":"m 264 1036 l 18 782 l 132 665 l 379 919 z m 540 1036 l 293 782 l 408 665 l 656 919 z "},"‘":{"ha":435,"x_min":0,"x_max":0,"o":"m 264 1036 l 18 782 l 132 665 l 379 919 z "},"’":{"ha":435,"x_min":0,"x_max":0,"o":"m 264 1036 l 18 782 l 132 665 l 379 919 z "},"«":{"ha":1125,"x_min":0,"x_max":0,"o":"m 732 678 l 492 678 l 75 339 l 492 0 l 732 0 l 315 339 z m 1067 678 l 826 678 l 410 339 l 826 0 l 1067 0 l 650 339 z "},"»":{"ha":1125,"x_min":0,"x_max":0,"o":"m 299 678 l 60 678 l 476 339 l 60 0 l 299 0 l 715 339 z m 635 678 l 394 678 l 811 339 l 394 0 l 635 0 l 1051 339 z "},"‹":{"ha":790,"x_min":0,"x_max":0,"o":"m 732 678 l 492 678 l 75 339 l 492 0 l 732 0 l 315 339 z "},"›":{"ha":790,"x_min":0,"x_max":0,"o":"m 299 678 l 60 678 l 476 339 l 60 0 l 299 0 l 715 339 z "},"\"":{"ha":585,"x_min":0,"x_max":0,"o":"m 76 519 l 243 519 l 243 972 l 76 972 z m 342 519 l 508 519 l 508 972 l 342 972 z "},"'":{"ha":319,"x_min":0,"x_max":0,"o":"m 76 972 l 76 519 l 243 519 l 243 972 z "},"　":{"ha":1389,"x_min":0,"x_max":0,"o":""}," ":{"ha":6250,"x_min":0,"x_max":0,"o":""}," ":{"ha":1389,"x_min":0,"x_max":0,"o":""}," ":{"ha":1389,"x_min":0,"x_max":0,"o":""}," ":{"ha":694,"x_min":0,"x_max":0,"o":""}," ":{"ha":694,"x_min":0,"x_max":0,"o":""}," ":{"ha":1042,"x_min":0,"x_max":0,"o":""}," ":{"ha":347,"x_min":0,"x_max":0,"o":""}," ":{"ha":199,"x_min":0,"x_max":0,"o":""}," ":{"ha":667,"x_min":0,"x_max":0,"o":""}," ":{"ha":833,"x_min":0,"x_max":0,"o":""}," ":{"ha":232,"x_min":0,"x_max":0,"o":""}," ":{"ha":278,"x_min":0,"x_max":0,"o":""}," ":{"ha":463,"x_min":0,"x_max":0,"o":""},"​":{"ha":0,"x_min":0,"x_max":0,"o":""},"‍":{"ha":0,"x_min":0,"x_max":0,"o":""},"‌":{"ha":0,"x_min":0,"x_max":0,"o":""},"¢":{"ha":667,"x_min":0,"x_max":0,"o":"m 650 519 l 650 678 l 492 678 l 492 817 l 325 817 l 325 678 l 63 678 l 63 0 l 325 0 l 325 -139 l 492 -139 l 492 0 l 650 0 l 650 157 l 492 157 l 492 519 z m 325 157 l 229 157 l 229 519 l 325 519 z "},"¤":{"ha":917,"x_min":0,"x_max":0,"o":"m 817 342 b 764 528 817 410 797 474 l 854 618 l 738 735 l 646 643 b 460 696 592 676 528 696 b 271 643 390 696 325 676 l 179 735 l 63 618 l 154 526 b 101 342 121 472 101 410 b 156 151 101 272 121 207 l 63 60 l 179 -57 l 271 35 b 460 -19 325 0 390 -19 b 646 35 528 -19 592 0 l 738 -57 l 854 60 l 763 151 b 817 342 797 207 817 272 z m 460 138 b 268 339 354 138 268 224 b 460 539 268 454 354 539 b 650 339 564 539 650 454 b 460 138 650 224 564 138 z "},"$":{"ha":986,"x_min":0,"x_max":0,"o":"m 904 815 l 904 972 l 576 972 l 576 1111 l 410 1111 l 410 972 l 82 972 l 82 426 l 410 426 l 410 157 l 82 157 l 82 0 l 410 0 l 410 -139 l 576 -139 l 576 0 l 904 0 l 904 583 l 576 583 l 576 815 z m 410 583 l 249 583 l 249 815 l 410 815 z m 738 426 l 738 157 l 576 157 l 576 426 z "},"€":{"ha":958,"x_min":0,"x_max":0,"o":"m 922 815 l 922 972 l 124 972 l 124 715 l -15 715 l -15 558 l 124 558 l 124 438 l -15 438 l -15 281 l 124 281 l 124 0 l 922 0 l 922 157 l 290 157 l 290 281 l 863 281 l 863 438 l 290 438 l 290 558 l 863 558 l 863 715 l 290 715 l 290 815 z "},"£":{"ha":958,"x_min":0,"x_max":0,"o":"m 922 815 l 922 972 l 124 972 l 124 557 l -15 557 l -15 400 l 124 400 l 124 158 l -15 158 l -15 0 l 922 0 l 922 158 l 290 158 l 290 400 l 863 400 l 863 557 l 290 557 l 290 815 z "},"¥":{"ha":1001,"x_min":0,"x_max":0,"o":"m 1032 872 l 917 989 l 525 586 l 133 989 l 19 872 l 301 582 l 42 582 l 42 425 l 368 425 l 325 381 l 42 381 l 42 224 l 172 224 l 53 100 l 167 -17 l 400 224 l 921 224 l 921 381 l 553 381 l 597 425 l 921 425 l 921 582 l 750 582 z "},"+":{"ha":1042,"x_min":0,"x_max":0,"o":"m 960 578 l 599 578 l 599 940 l 442 940 l 442 578 l 82 578 l 82 421 l 442 421 l 442 61 l 599 61 l 599 421 l 960 421 z "},"−":{"ha":1042,"x_min":0,"x_max":0,"o":"m 82 421 l 960 421 l 960 578 l 82 578 z "},"×":{"ha":1090,"x_min":0,"x_max":0,"o":"m 1008 853 l 900 963 l 546 610 l 193 964 l 82 853 l 435 499 l 82 146 l 193 35 l 546 388 l 897 35 l 1008 146 l 656 500 z "},"÷":{"ha":1042,"x_min":0,"x_max":0,"o":"m 450 876 l 450 714 l 611 714 l 611 876 z m 82 421 l 960 421 l 960 578 l 82 578 z m 450 285 l 450 124 l 611 124 l 611 285 z "},"=":{"ha":1042,"x_min":0,"x_max":0,"o":"m 82 560 l 960 560 l 960 717 l 82 717 z m 82 282 l 960 282 l 960 439 l 82 439 z "},"≠":{"ha":1042,"x_min":0,"x_max":0,"o":"m 1171 1057 l 1049 1181 l 608 717 l 82 717 l 82 560 l 460 560 l 344 439 l 82 439 l 82 282 l 196 282 l -136 -68 l -15 -193 l 436 282 l 960 282 l 960 439 l 585 439 l 699 560 l 960 560 l 960 717 l 849 717 z "},">":{"ha":1042,"x_min":0,"x_max":0,"o":"m 82 994 l 82 819 l 783 500 l 82 179 l 82 4 l 960 421 l 960 578 z "},"<":{"ha":1042,"x_min":0,"x_max":0,"o":"m 960 994 l 82 578 l 82 421 l 960 4 l 960 179 l 258 500 l 960 819 z "},"≥":{"ha":1042,"x_min":0,"x_max":0,"o":"m 82 1175 l 82 1000 l 783 681 l 82 360 l 82 185 l 960 601 l 960 758 z m 82 0 l 960 0 l 960 157 l 82 157 z "},"≤":{"ha":1042,"x_min":0,"x_max":0,"o":"m 960 1175 l 82 758 l 82 601 l 960 185 l 960 360 l 258 681 l 960 1000 z m 960 0 l 960 157 l 82 157 l 82 0 z "},"±":{"ha":1042,"x_min":0,"x_max":0,"o":"m 599 700 l 599 1063 l 442 1063 l 442 700 l 82 700 l 82 543 l 442 543 l 442 183 l 599 183 l 599 543 l 960 543 l 960 700 z m 82 0 l 960 0 l 960 157 l 82 157 z "},"≈":{"ha":1042,"x_min":0,"x_max":0,"o":"m 793 750 b 710 657 793 697 757 657 b 338 789 594 657 518 789 b 82 538 197 789 82 678 l 249 538 b 338 631 249 590 285 631 b 710 499 450 631 529 499 b 960 750 844 499 960 610 z m 793 472 b 710 379 793 419 757 379 b 338 511 594 379 518 511 b 82 260 197 511 82 400 l 249 260 b 338 353 249 313 285 353 b 710 221 450 353 529 221 b 960 472 844 221 960 332 z "},"~":{"ha":1042,"x_min":0,"x_max":0,"o":"m 793 611 b 710 518 793 558 757 518 b 338 650 594 518 518 650 b 82 399 197 650 82 539 l 249 399 b 338 492 249 451 285 492 b 710 360 450 492 529 360 b 960 611 844 360 960 471 z "},"¬":{"ha":1042,"x_min":0,"x_max":0,"o":"m 960 678 l 82 678 l 82 519 l 793 519 l 793 226 l 960 226 z "},"^":{"ha":913,"x_min":0,"x_max":0,"o":"m 82 497 l 257 497 l 456 854 l 656 497 l 831 497 l 536 993 l 379 993 z "},"∅":{"ha":917,"x_min":0,"x_max":0,"o":"m 854 618 l 738 735 l 646 643 b 460 696 592 676 528 696 b 101 342 261 696 101 538 b 154 151 101 272 121 207 l 63 60 l 179 -57 l 271 35 b 460 -19 325 0 390 -19 b 817 342 656 -19 817 142 b 764 528 817 410 797 474 z m 268 339 b 460 539 268 454 354 539 b 529 526 483 539 507 535 l 278 275 b 268 339 271 294 268 317 z m 650 339 b 460 138 650 224 564 138 b 388 151 435 138 410 143 l 640 404 b 650 339 647 383 650 363 z "},"∞":{"ha":1061,"x_min":0,"x_max":0,"o":"m 732 750 b 531 661 657 750 586 715 b 329 750 475 715 404 750 b 82 515 197 750 82 644 b 329 278 82 383 197 278 b 531 368 404 278 475 313 b 732 278 586 313 657 278 b 979 515 864 278 979 383 b 732 750 979 644 864 750 z m 329 435 b 249 515 283 435 249 469 b 329 593 249 558 283 593 b 438 515 371 593 411 558 b 329 435 411 469 371 435 z m 732 435 b 624 515 690 435 650 469 b 732 593 650 558 690 593 b 813 515 778 593 813 558 b 732 435 813 469 778 435 z "},"∫":{"ha":833,"x_min":0,"x_max":0,"o":"m 833 1111 l 497 1111 l 497 1106 l 203 -121 l 0 -121 l 0 -278 l 336 -278 l 636 954 l 833 954 z "},"∏":{"ha":1014,"x_min":0,"x_max":0,"o":"m 1003 972 l 11 972 l 11 815 l 150 815 l 150 -278 l 317 -278 l 317 815 l 697 815 l 697 -278 l 864 -278 l 864 815 l 1003 815 z "},"∑":{"ha":828,"x_min":0,"x_max":0,"o":"m 40 -278 l 789 -278 l 789 -121 l 272 -121 l 736 353 l 271 815 l 789 815 l 789 972 l 40 972 l 40 815 l 504 353 l 40 -121 z "},"√":{"ha":1040,"x_min":0,"x_max":0,"o":"m 1069 1111 l 735 1111 l 358 206 l 168 678 l -17 678 l 263 0 l 446 0 l 847 954 l 1069 954 z "},"∂":{"ha":778,"x_min":0,"x_max":0,"o":"m 715 972 l 63 972 l 63 815 l 549 815 l 549 678 l 63 678 l 63 0 l 715 0 z m 549 157 l 229 157 l 229 519 l 549 519 z "},"%":{"ha":1278,"x_min":0,"x_max":0,"o":"m 329 517 b 574 754 458 517 574 622 b 329 989 574 883 458 989 b 82 754 197 989 82 883 b 329 517 82 622 197 517 z m 168 100 l 283 -17 l 1106 872 l 992 989 z m 329 674 b 249 754 283 674 249 708 b 329 832 249 797 283 832 b 407 754 371 832 407 797 b 329 674 407 708 371 674 z m 953 3 b 1197 240 1082 3 1197 108 b 953 475 1197 369 1082 475 b 706 240 821 475 706 369 b 953 3 706 108 821 3 z m 953 160 b 872 240 907 160 872 194 b 953 318 872 283 907 318 b 1031 240 994 318 1031 283 b 953 160 1031 194 994 160 z "},"‰":{"ha":1833,"x_min":0,"x_max":0,"o":"m 329 517 b 574 754 458 517 574 622 b 329 989 574 883 458 989 b 82 754 197 989 82 883 b 329 517 82 622 197 517 z m 168 100 l 283 -17 l 1106 872 l 992 989 z m 329 674 b 249 754 283 674 249 708 b 329 832 249 797 283 832 b 407 754 371 832 407 797 b 329 674 407 708 371 674 z m 953 3 b 1197 240 1082 3 1197 108 b 953 475 1197 369 1082 475 b 706 240 821 475 706 369 b 953 3 706 108 821 3 z m 1508 3 b 1753 240 1638 3 1753 108 b 1508 475 1753 369 1638 475 b 1261 240 1376 475 1261 369 b 1508 3 1261 108 1376 3 z m 953 160 b 872 240 907 160 872 194 b 953 318 872 283 907 318 b 1031 240 994 318 1031 283 b 953 160 1031 194 994 160 z m 1508 160 b 1428 240 1463 160 1428 194 b 1508 318 1428 283 1463 318 b 1586 240 1550 318 1586 283 b 1508 160 1586 194 1550 160 z "},"↑":{"ha":1075,"x_min":0,"x_max":0,"o":"m 1035 685 l 538 1179 l 40 685 l 156 567 l 454 871 l 454 -187 l 621 -187 l 621 871 l 919 567 z "},"↗":{"ha":1108,"x_min":0,"x_max":0,"o":"m 1068 293 l 1065 996 l 365 997 l 363 832 l 786 835 l 40 88 l 160 -29 l 907 717 l 904 292 z "},"→":{"ha":1449,"x_min":0,"x_max":0,"o":"m 913 996 l 794 881 l 1099 582 l 40 582 l 40 415 l 1099 415 l 794 117 l 913 1 l 1408 499 z "},"↘":{"ha":1108,"x_min":0,"x_max":0,"o":"m 904 675 l 907 249 l 160 996 l 40 879 l 788 131 l 363 133 l 365 -31 l 1065 -29 l 1068 674 z "},"↓":{"ha":1075,"x_min":0,"x_max":0,"o":"m 919 426 l 621 121 l 621 1179 l 454 1179 l 454 121 l 156 426 l 40 307 l 538 -187 l 1035 308 z "},"↙":{"ha":1108,"x_min":0,"x_max":0,"o":"m 1068 879 l 949 996 l 201 247 l 206 675 l 40 674 l 43 -29 l 743 -31 l 747 133 l 321 131 z "},"←":{"ha":1449,"x_min":0,"x_max":0,"o":"m 1408 582 l 350 582 l 654 881 l 536 996 l 40 499 l 536 1 l 654 117 l 350 415 l 1408 415 z "},"↖":{"ha":1108,"x_min":0,"x_max":0,"o":"m 1068 88 l 322 835 l 747 832 l 743 997 l 43 996 l 40 293 l 206 292 l 201 718 l 949 -29 z "},"↔":{"ha":1778,"x_min":0,"x_max":0,"o":"m 1243 996 l 1125 881 l 1429 582 l 350 582 l 654 881 l 536 996 l 40 499 l 536 1 l 654 117 l 350 415 l 1429 415 l 1125 117 l 1243 1 l 1738 499 z "},"↕":{"ha":1075,"x_min":0,"x_max":0,"o":"m 621 8 l 621 990 l 919 686 l 1035 804 l 538 1299 l 40 804 l 156 686 l 454 990 l 454 8 l 156 313 l 40 194 l 538 -300 l 1035 194 l 919 313 z "},"◊":{"ha":968,"x_min":0,"x_max":0,"o":"m 564 993 l 407 993 l 82 497 l 407 1 l 564 1 l 886 497 z m 483 140 l 257 497 l 483 854 l 711 497 z "},"@":{"ha":1178,"x_min":0,"x_max":0,"o":"m 1203 918 l 68 918 l 68 -242 l 1199 -242 l 1199 -85 l 235 -85 l 235 761 l 1036 761 l 1036 157 l 943 157 l 943 678 l 328 678 l 328 519 l 776 519 l 776 421 l 328 421 l 328 0 l 1203 0 z m 494 157 l 494 263 l 776 263 l 776 157 z "},"&":{"ha":1146,"x_min":0,"x_max":0,"o":"m 1064 815 l 1064 972 l 90 972 l 90 815 l 443 483 l 82 157 l 82 0 l 1064 0 l 1064 599 l 897 599 l 897 281 l 329 815 z m 563 371 l 789 157 l 325 157 z "},"¶":{"ha":1026,"x_min":0,"x_max":0,"o":"m 946 972 l 371 972 b 68 672 203 972 68 838 b 371 369 68 504 203 369 l 371 0 l 557 0 l 557 815 l 760 815 l 760 0 l 946 0 z "},"§":{"ha":750,"x_min":0,"x_max":0,"o":"m 688 815 l 688 972 l 63 972 l 63 257 l 521 257 l 521 157 l 63 157 l 63 0 l 688 0 l 688 710 l 229 710 l 229 815 z m 521 414 l 229 414 l 229 553 l 521 553 z "},"©":{"ha":1161,"x_min":0,"x_max":0,"o":"m 1079 490 b 585 986 1078 763 857 986 b 82 490 307 986 83 763 b 585 -14 81 210 307 -14 b 1079 490 857 -14 1081 210 z m 585 0 b 96 490 314 0 94 218 b 585 972 97 754 314 972 b 1065 490 849 972 1064 754 b 585 0 1067 218 849 0 z m 361 785 l 361 188 l 806 188 l 806 344 l 528 344 l 528 628 l 806 628 l 806 785 z "},"®":{"ha":611,"x_min":0,"x_max":0,"o":"m 307 979 b 69 744 175 979 69 874 b 307 507 69 613 175 507 b 542 744 436 507 542 613 b 307 979 542 874 436 979 z m 307 521 b 83 744 183 521 83 621 b 307 965 83 865 183 965 b 528 744 428 965 528 865 b 307 521 528 621 428 521 z m 394 854 l 394 719 l 408 719 l 408 868 l 197 868 l 197 608 l 211 608 l 211 854 z m 289 749 l 418 607 l 428 617 l 299 758 z "},"™":{"ha":2358,"x_min":0,"x_max":0,"o":"m 932 972 l 11 972 l 11 815 l 388 815 l 388 0 l 554 0 l 554 815 l 932 815 z m 2110 972 l 1651 486 l 1192 972 l 1025 972 l 1025 0 l 1192 0 l 1192 732 l 1540 365 l 1288 100 l 1401 -17 l 1651 246 l 1900 -17 l 2014 100 l 1761 365 l 2110 732 l 2110 0 l 2276 0 l 2276 972 z "},"°":{"ha":631,"x_min":0,"x_max":0,"o":"m 317 639 b 561 876 446 639 561 744 b 317 1111 561 1006 446 1111 b 69 876 185 1111 69 1006 b 317 639 69 744 185 639 z m 317 796 b 236 876 271 796 236 831 b 317 954 236 919 271 954 b 394 876 360 954 394 919 b 317 796 394 831 360 796 z "},"|":{"ha":319,"x_min":0,"x_max":0,"o":"m 76 1111 l 76 -278 l 243 -278 l 243 1111 z "},"¦":{"ha":319,"x_min":0,"x_max":0,"o":"m 76 1111 l 76 540 l 243 540 l 243 1111 z m 76 293 l 76 -278 l 243 -278 l 243 293 z "},"†":{"ha":921,"x_min":0,"x_max":0,"o":"m 921 694 l 543 694 l 543 1036 l 376 1036 l 376 694 l 0 694 l 0 538 l 376 538 l 376 -278 l 543 -278 l 543 538 l 921 538 z "},"‡":{"ha":921,"x_min":0,"x_max":0,"o":"m 921 538 l 921 694 l 543 694 l 543 1036 l 376 1036 l 376 694 l 0 694 l 0 538 l 376 538 l 376 221 l 0 221 l 0 64 l 376 64 l 376 -278 l 543 -278 l 543 64 l 921 64 l 921 221 l 543 221 l 543 538 z "},"̦":{"ha":0,"x_min":0,"x_max":0,"o":"m -115 -90 l -362 -344 l -247 -461 l 1 -207 z "},"¨":{"ha":439,"x_min":0,"x_max":0,"o":"m 0 1215 l 0 1054 l 161 1054 l 161 1215 z m 278 1215 l 278 1054 l 439 1054 l 439 1215 z "},"˙":{"ha":161,"x_min":0,"x_max":0,"o":"m 0 1215 l 0 1054 l 161 1054 l 161 1215 z "},"`":{"ha":311,"x_min":0,"x_max":0,"o":"m 103 1317 l 0 1211 l 207 1006 l 311 1108 z "},"´":{"ha":311,"x_min":0,"x_max":0,"o":"m 208 1317 l 0 1108 l 106 1006 l 311 1211 z "},"˝":{"ha":607,"x_min":0,"x_max":0,"o":"m 208 1317 l 0 1108 l 106 1006 l 311 1211 z m 503 1317 l 296 1108 l 400 1006 l 607 1211 z "},"ˆ":{"ha":417,"x_min":0,"x_max":0,"o":"m 417 1108 l 208 1317 l 0 1108 l 106 1006 l 208 1108 l 311 1006 z "},"ˇ":{"ha":417,"x_min":0,"x_max":0,"o":"m 417 1208 l 311 1313 l 208 1210 l 106 1313 l 0 1208 l 208 1000 z "},"˘":{"ha":467,"x_min":0,"x_max":0,"o":"m 467 1258 l 338 1258 b 233 1175 336 1228 307 1175 b 129 1258 160 1175 131 1228 l 0 1258 b 233 1029 -7 1142 72 1029 b 467 1258 394 1029 472 1142 z "},"˚":{"ha":228,"x_min":0,"x_max":0,"o":"m 114 1008 b 253 1147 190 1008 253 1071 b 114 1286 253 1222 190 1286 b -25 1147 38 1286 -25 1222 b 114 1008 -25 1071 38 1008 z m 114 1131 b 99 1147 106 1131 99 1139 b 114 1163 99 1156 106 1163 b 131 1147 122 1163 131 1156 b 114 1131 131 1139 122 1131 z "},"˜":{"ha":486,"x_min":0,"x_max":0,"o":"m 342 1219 b 321 1194 338 1194 332 1194 b 167 1239 285 1194 242 1239 b 0 1057 75 1239 0 1165 l 142 1057 b 164 1082 146 1083 154 1082 b 326 1038 200 1082 257 1038 b 486 1219 410 1038 486 1113 z "},"¯":{"ha":439,"x_min":0,"x_max":0,"o":"m 0 1221 l 0 1054 l 439 1054 l 439 1221 z "},"¸":{"ha":833,"x_min":0,"x_max":0,"o":"m 286 -57 l 296 0 l 175 0 l 154 -124 b 210 -153 204 -131 210 -142 b 125 -168 210 -162 192 -168 l 125 -278 b 368 -153 307 -278 368 -224 b 286 -57 368 -115 343 -79 z "},"˛":{"ha":833,"x_min":0,"x_max":0,"o":"m 368 -278 l 368 -121 b 322 -81 340 -121 322 -101 b 364 0 322 -53 335 -25 l 238 0 b 164 -135 204 -32 164 -64 b 368 -278 164 -207 206 -278 z "}}}
